<svg width="206" height="199" viewBox="0 0 206 199" fill="none" xmlns="http://www.w3.org/2000/svg">
<g clip-path="url(#clip0)">
<path opacity="0.05" d="M126.336 173.232L130.819 167.231L148.789 157.274L168.342 153.29L171.06 147.283L186.356 138.491L167.969 122.563L115.291 156.998L126.336 173.232Z" fill="black"/>
<path d="M19.3594 133.504L112.664 180.156V177.839L19.3594 131.192V133.504Z" fill="#EEBC92"/>
<path d="M112.664 180.157L126.337 173.233V170.921L112.664 177.845V180.157Z" fill="#D2A782"/>
<path d="M19.3594 131.192L112.664 177.842L126.336 170.912L33.0312 124.269L19.3594 131.192Z" fill="#F1D3A0"/>
<path d="M44.4777 131.107L31.9023 137.475V129.168L44.4783 122.804L44.4777 131.107Z" fill="#D2A782"/>
<path d="M31.9016 137.475L19.3262 131.106V122.803L31.9016 129.172V137.475Z" fill="#E1BD9E"/>
<path d="M44.4784 122.803L31.9035 129.17L19.3281 122.797L31.9035 116.436L44.4784 122.803Z" fill="#EEBB66"/>
<path d="M84.8703 151.278L72.2949 157.647V149.339L84.8708 142.976L84.8703 151.278Z" fill="#D2A782"/>
<path d="M72.2941 157.647L59.7188 151.278V142.976L72.2941 149.344V157.647Z" fill="#E1BD9E"/>
<path d="M84.871 142.976L72.2956 149.343L59.7207 142.971L72.2956 136.61L84.871 142.976Z" fill="#EEBB66"/>
<path d="M125.239 171.381L112.662 177.75V169.442L125.238 163.079L125.239 171.381Z" fill="#D2A782"/>
<path d="M112.663 177.75L100.088 171.381V163.078L112.663 169.447V177.75Z" fill="#E1BD9E"/>
<path d="M125.238 163.078L112.663 169.445L100.088 163.072L112.663 156.711L125.238 163.078Z" fill="#FBDDAB"/>
<path d="M19.3594 122.798L112.664 169.45V167.133L19.3594 120.487V122.798Z" fill="#EEBC92"/>
<path d="M112.664 169.45L126.336 162.526V160.214L112.664 167.138V169.45Z" fill="#D2A782"/>
<path d="M19.3594 120.486L112.664 167.137L126.336 160.207L33.0312 113.563L19.3594 120.486Z" fill="#F1D3A0"/>
<path d="M99.0226 94.5729L192.327 141.225V138.908L99.0215 92.2613L99.0226 94.5729Z" fill="#BF9775"/>
<path d="M192.328 141.225L206 134.301V131.989L192.328 138.914V141.225Z" fill="#D2A782"/>
<path d="M99.0234 92.2617L192.328 138.912L206.002 131.982L112.697 85.3388L99.0234 92.2617Z" fill="#F1D3A0"/>
<path d="M124.14 91.6756L111.564 98.0444V89.7367L124.14 83.3733V91.6756Z" fill="#D2A782"/>
<path d="M111.566 98.0444L98.9902 91.6756V83.3727L111.566 89.7415V98.0444Z" fill="#E1BD9E"/>
<path d="M124.143 83.3705L111.568 89.7398L98.9922 83.3662L111.568 77.0055L124.143 83.3705Z" fill="#EEBB66"/>
<path d="M164.448 111.878L151.873 118.247V109.939L164.449 103.575L164.448 111.878Z" fill="#D2A782"/>
<path d="M151.874 118.247L139.299 111.878V103.575L151.874 109.944V118.247Z" fill="#E1BD9E"/>
<path d="M164.449 103.575L151.874 109.942L139.299 103.568L151.874 97.2076L164.449 103.575Z" fill="#EEBB66"/>
<path d="M204.902 131.983L192.326 138.352V130.044L204.902 123.68L204.902 131.983Z" fill="#D2A782"/>
<path d="M192.327 138.352L179.752 131.983V123.68L192.327 130.049V138.352Z" fill="#B2967D"/>
<path d="M204.902 123.68L192.327 130.048L179.752 123.674L192.327 117.312L204.902 123.68Z" fill="#FBDDAB"/>
<path d="M99.0226 83.3675L192.327 130.02V127.703L99.0215 81.0559L99.0226 83.3675Z" fill="#BF9775"/>
<path d="M192.328 130.019L206 123.095V120.784L192.328 127.707V130.019Z" fill="#D2A782"/>
<path d="M99.0234 81.0563L192.328 127.707L206.002 120.777L112.697 74.1335L99.0234 81.0563Z" fill="#F1D3A0"/>
<path d="M61.3624 113.309L154.667 159.961V157.644L61.3613 110.997L61.3624 113.309Z" fill="#BF9775"/>
<path d="M154.668 159.96L168.34 153.036V150.725L154.668 157.649V159.96Z" fill="#D2A782"/>
<path d="M61.3633 110.997L154.668 157.648L168.34 150.718L75.0351 104.076L61.3633 110.997Z" fill="#F1D3A0"/>
<path d="M86.4792 110.409L73.9043 116.778V108.471L86.4792 102.108V110.409Z" fill="#D2A782"/>
<path d="M73.9055 116.78L61.3301 110.409V102.107L73.9055 108.475V116.78Z" fill="#E1BD9E"/>
<path d="M86.4803 102.109L73.9055 108.473L61.3301 102.099L73.9055 95.7388L86.4803 102.109Z" fill="#EEBB66"/>
<path d="M126.79 130.613L114.215 136.982V128.674L126.791 122.31L126.79 130.613Z" fill="#D2A782"/>
<path d="M114.214 136.982L101.639 130.613V122.309L114.214 128.678V136.982Z" fill="#E1BD9E"/>
<path d="M126.789 122.31L114.214 128.677L101.639 122.304L114.214 115.943L126.789 122.31Z" fill="#EEBB66"/>
<path d="M167.241 150.718L154.666 157.087V148.779L167.242 142.416L167.241 150.718Z" fill="#D2A782"/>
<path d="M154.667 157.087L142.092 150.718V142.415L154.667 148.784V157.087Z" fill="#B2967D"/>
<path d="M167.242 142.413L154.667 148.782L142.092 142.409L154.667 136.048L167.242 142.413Z" fill="#FBDDAB"/>
<path d="M61.3624 102.103L154.667 148.755V146.438L61.3613 99.7911L61.3624 102.103Z" fill="#BF9775"/>
<path d="M154.668 148.755L168.34 141.831V139.52L154.668 146.444V148.755Z" fill="#D2A782"/>
<path d="M61.3633 99.7912L154.668 146.44L168.34 139.51L75.0351 92.8667L61.3633 99.7912Z" fill="#F1D3A0"/>
<path d="M126.336 80.6841L33.0312 127.336V125.019L126.337 78.3726L126.336 80.6841Z" fill="#D2A782"/>
<path d="M33.0312 127.336L19.3594 120.413V118.101L33.0312 125.025V127.336Z" fill="#EEBC92"/>
<path d="M126.337 78.3727L33.0317 125.023L19.3594 118.094L112.664 71.4504L126.337 78.3727Z" fill="#FBDDAB"/>
<path d="M166.153 100.632L72.8477 147.284V144.967L166.154 98.3203L166.153 100.632Z" fill="#D2A782"/>
<path d="M72.8476 147.284L59.1758 140.36V138.048L72.8476 144.972V147.284Z" fill="#EEBC92"/>
<path d="M166.153 98.3207L72.8476 144.971L59.1758 138.041L152.481 91.3984L166.153 98.3207Z" fill="#FBDDAB"/>
<path d="M146.826 90.8226L53.5215 137.475V135.158L146.827 88.511L146.826 90.8226Z" fill="#D2A782"/>
<path d="M53.5214 137.475L39.8496 130.551V128.24L53.5214 135.164V137.475Z" fill="#EEBC92"/>
<path d="M146.826 88.5115L53.5214 135.162L39.8496 128.232L133.155 81.5886L146.826 88.5115Z" fill="#FBDDAB"/>
<path d="M187.43 111.249L94.125 157.901V155.584L187.431 108.937L187.43 111.249Z" fill="#D2A782"/>
<path d="M94.1249 157.901L80.4531 150.977V148.666L94.1249 155.59V157.901Z" fill="#EEBC92"/>
<path d="M187.43 108.938L94.1249 155.588L80.4531 148.658L173.758 102.015L187.43 108.938Z" fill="#FBDDAB"/>
<path d="M205.97 120.578L112.662 167.231V164.914L205.968 118.267L205.97 120.578Z" fill="#D2A782"/>
<path d="M112.666 167.231L98.9941 160.307V157.995L112.666 164.919V167.231Z" fill="#EEBC92"/>
<path d="M205.97 118.267L112.666 164.918L98.9941 157.988L192.298 111.345L205.97 118.267Z" fill="#FBDDAB"/>
<path d="M132.702 90.0103L69.7734 120.224V71.2798L132.702 41.0753V90.0103Z" fill="#CA9761"/>
<path d="M69.7745 120.222L45.8223 108.09V59.157L69.7745 71.2891V120.222Z" fill="#EBAB54"/>
<path d="M132.702 41.0753L69.7745 71.2847L45.8223 59.1445L108.752 28.9476L132.702 41.0753Z" fill="#F2B665"/>
<path d="M69.7745 71.3426L45.8223 59.2105V59.1563L45.8758 59.1287L69.7735 71.2321L69.7745 71.3426Z" fill="#F0C673"/>
<path d="M69.7754 71.3422L132.704 41.1301V41.0759L132.651 41.0483L69.7759 71.2322L69.7754 71.3422Z" fill="#F0DAAF"/>
<path d="M69.7734 71.2874L132.702 41.0753L69.7734 71.2874Z" fill="#CAB093"/>
<path d="M69.7734 74.2777V71.2875C69.7734 71.2875 68.4112 105.48 69.7734 120.222V107.535C69.2461 99.5541 69.5103 77.6633 69.7734 74.2777Z" fill="#CA9761"/>
<path d="M69.7732 118.939V71.7647C69.5117 75.1519 69.2443 110.958 69.7732 118.939Z" fill="#AC7C47"/>
<path d="M58.773 78.3143L55.3164 76.5638V64.0288L58.773 65.7793V78.3143Z" fill="#FBF2D2"/>
<path d="M55.3145 64.0304L58.771 65.7803L121.932 35.6191L118.475 33.8692L55.3145 64.0304Z" fill="#FFF6D6"/>
<path d="M53.944 69.4302L47.9004 67.6494L47.1875 63.8354L53.231 65.6162L53.944 69.4302Z" fill="white"/>
<path d="M48.7581 67.2692L48.6111 67.2259L48.1484 64.7519L48.2955 64.7952L48.7581 67.2692Z" fill="#5B677E"/>
<path d="M48.9285 67.3192L48.8552 67.2975L48.3926 64.8234L48.4659 64.8451L48.9285 67.3192Z" fill="#5B677E"/>
<path d="M49.0984 67.3689L49.0251 67.3472L48.5625 64.8731L48.6358 64.8948L49.0984 67.3689Z" fill="#5B677E"/>
<path d="M49.2683 67.4177L49.195 67.396L48.7324 64.9219L48.8057 64.9436L49.2683 67.4177Z" fill="#5B677E"/>
<path d="M49.4382 67.4685L49.365 67.4468L48.9023 64.9727L48.9756 64.9944L49.4382 67.4685Z" fill="#5B677E"/>
<path d="M49.68 67.5406L49.5329 67.4973L49.0703 65.0232L49.2174 65.0665L49.68 67.5406Z" fill="#5B677E"/>
<path d="M50.3367 67.734L50.2634 67.7123L49.8008 65.2383L49.8741 65.2599L50.3367 67.734Z" fill="#5B677E"/>
<path d="M50.5066 67.7853L50.4333 67.7637L49.9707 65.2896L50.044 65.3113L50.5066 67.7853Z" fill="#5B677E"/>
<path d="M50.7503 67.8558L50.6033 67.8125L50.1406 65.3384L50.2877 65.3817L50.7503 67.8558Z" fill="#5B677E"/>
<path d="M49.9242 67.6122L49.7771 67.5689L49.3145 65.0948L49.4615 65.1381L49.9242 67.6122Z" fill="#5B677E"/>
<path d="M50.1683 67.6841L50.0212 67.6408L49.5586 65.1667L49.7057 65.21L50.1683 67.6841Z" fill="#5B677E"/>
<path d="M50.9925 67.9263L50.8454 67.883L50.3828 65.4089L50.5299 65.4522L50.9925 67.9263Z" fill="#5B677E"/>
<path d="M51.1629 67.9776L51.0896 67.9559L50.627 65.4818L50.7002 65.5035L51.1629 67.9776Z" fill="#5B677E"/>
<path d="M51.3328 68.0275L51.2595 68.0059L50.7969 65.5318L50.8701 65.5535L51.3328 68.0275Z" fill="#5B677E"/>
<path d="M51.5027 68.08L51.4294 68.0584L50.9668 65.5843L51.0401 65.606L51.5027 68.08Z" fill="#5B677E"/>
<path d="M51.6726 68.1272L51.5993 68.1055L51.1367 65.6314L51.21 65.6531L51.6726 68.1272Z" fill="#5B677E"/>
<path d="M51.9164 68.1993L51.7693 68.156L51.3066 65.6819L51.4537 65.7252L51.9164 68.1993Z" fill="#5B677E"/>
<path d="M52.5711 68.3926L52.4978 68.371L52.0352 65.8969L52.1084 65.9186L52.5711 68.3926Z" fill="#5B677E"/>
<path d="M52.7429 68.4424L52.6697 68.4207L52.207 65.9466L52.2803 65.9683L52.7429 68.4424Z" fill="#5B677E"/>
<path d="M52.9847 68.5156L52.8376 68.4723L52.375 65.9982L52.5221 66.0415L52.9847 68.5156Z" fill="#5B677E"/>
<path d="M52.1585 68.2706L52.0115 68.2273L51.5488 65.7532L51.6959 65.7966L52.1585 68.2706Z" fill="#5B677E"/>
<path d="M52.4007 68.3422L52.2536 68.2989L51.791 65.8248L51.9381 65.8682L52.4007 68.3422Z" fill="#5B677E"/>
<path d="M68.0826 76.0085L60.4961 72.168V68.5143L68.0831 72.357L68.0826 76.0085Z" fill="white"/>
<path d="M49.3896 105.795L46.693 104.43C46.593 104.379 46.5117 104.42 46.5117 104.521V107.251C46.5167 107.309 46.5359 107.364 46.5676 107.412C46.5993 107.461 46.6424 107.5 46.693 107.527L49.3896 108.892C49.4896 108.943 49.5704 108.902 49.5704 108.8V106.071C49.5655 106.013 49.5464 105.958 49.5148 105.909C49.4832 105.861 49.4402 105.822 49.3896 105.795ZM49.4292 108.581C49.4292 108.685 49.3463 108.727 49.2436 108.675L46.8401 107.458C46.7882 107.43 46.7439 107.39 46.7113 107.34C46.6787 107.291 46.6588 107.234 46.6534 107.175V104.741C46.6534 104.637 46.7374 104.594 46.8401 104.647L49.2436 105.864C49.2954 105.892 49.3396 105.932 49.372 105.982C49.4044 106.031 49.4241 106.088 49.4292 106.147V108.581Z" fill="#5B677E"/>
<path d="M47.5495 107.382L47.3789 107.296V105.423L47.5495 105.509V107.382Z" fill="#5B677E"/>
<path d="M47.4645 105.22L47.2324 105.573L47.4645 105.69L47.6966 105.808L47.4645 105.22Z" fill="#5B677E"/>
<path d="M48.7019 107.966L48.5312 107.88V106.006L48.7019 106.092V107.966Z" fill="#5B677E"/>
<path d="M48.6169 105.804L48.3848 106.157L48.6169 106.274L48.849 106.392L48.6169 105.804Z" fill="#5B677E"/>
<path d="M46.9922 107.357V107.185L49.0882 108.246V108.419L46.9922 107.357Z" fill="#5B677E"/>
<path d="M53.016 107.631L50.32 106.266C50.2194 106.215 50.1387 106.255 50.1387 106.357V109.087C50.1435 109.145 50.1627 109.2 50.1944 109.248C50.2261 109.296 50.2693 109.335 50.32 109.362L53.016 110.728C53.1161 110.778 53.1974 110.737 53.1974 110.636V107.906C53.1922 107.848 53.1729 107.793 53.1412 107.745C53.1095 107.697 53.0665 107.658 53.016 107.631ZM53.0562 110.417C53.0562 110.521 52.9733 110.563 52.8695 110.511L50.4665 109.294C50.4144 109.266 50.3699 109.226 50.3373 109.176C50.3047 109.127 50.2849 109.07 50.2799 109.011V106.577C50.2799 106.473 50.3628 106.43 50.4665 106.483L52.8695 107.7C52.9216 107.727 52.966 107.768 52.9986 107.817C53.0313 107.867 53.051 107.924 53.0562 107.983V110.417Z" fill="#5B677E"/>
<path d="M52.303 108.993C52.188 108.931 52.09 108.842 52.018 108.732C51.946 108.623 51.9022 108.497 51.8906 108.365V107.401L52.7153 107.819V108.783C52.7153 109.014 52.5308 109.108 52.303 108.993Z" fill="#5B677E"/>
<path d="M52.3502 109.983L52.2539 109.935V108.926L52.3502 108.975V109.983Z" fill="#5B677E"/>
<path d="M51.8906 109.82C51.8906 109.766 51.9334 109.744 51.9874 109.77L52.6191 110.091C52.6459 110.105 52.6688 110.126 52.6856 110.152C52.7024 110.177 52.7126 110.207 52.7153 110.237L51.8906 109.82Z" fill="#5B677E"/>
<path d="M50.6191 106.757V107.721C50.6305 107.852 50.6743 107.979 50.7463 108.088C50.8184 108.197 50.9164 108.287 51.0315 108.348C51.2588 108.464 51.4438 108.37 51.4438 108.139V107.175L50.6191 106.757ZM51.3583 108.096C51.3583 108.279 51.2117 108.354 51.031 108.262C50.9397 108.213 50.8618 108.143 50.8046 108.056C50.7473 107.969 50.7124 107.869 50.7031 107.765V106.886L51.3577 107.218L51.3583 108.096Z" fill="#5B677E"/>
<path d="M51.0806 109.34L50.9844 109.292V108.283L51.0806 108.332V109.34Z" fill="#5B677E"/>
<path d="M50.6191 109.176C50.6191 109.122 50.6619 109.1 50.7154 109.127L51.347 109.447C51.3739 109.461 51.3969 109.482 51.4138 109.508C51.4306 109.533 51.441 109.563 51.4438 109.593L50.6191 109.176Z" fill="#5B677E"/>
<path d="M56.643 109.467L53.9464 108.102C53.8464 108.051 53.7656 108.092 53.7656 108.194V110.924C53.7707 110.981 53.7899 111.036 53.8215 111.084C53.8531 111.132 53.896 111.172 53.9464 111.199L56.643 112.564C56.743 112.615 56.8238 112.574 56.8238 112.473V109.743C56.8188 109.685 56.7996 109.63 56.768 109.582C56.7365 109.534 56.6935 109.494 56.643 109.467ZM56.6831 112.253C56.6831 112.357 56.5991 112.399 56.4965 112.347L54.0929 111.131C54.041 111.103 53.9967 111.062 53.9641 111.013C53.9315 110.963 53.9116 110.906 53.9063 110.847V108.413C53.9063 108.309 53.9903 108.267 54.0929 108.32L56.4965 109.537C56.5485 109.564 56.5929 109.604 56.6255 109.654C56.6581 109.703 56.6779 109.76 56.6831 109.819V112.253Z" fill="#5B677E"/>
<path d="M54.7457 109.997C54.7944 109.983 54.8453 109.979 54.8955 109.985C54.9456 109.992 54.994 110.008 55.0377 110.034C55.1533 110.096 55.2532 110.185 55.3297 110.292C55.3784 110.278 55.4293 110.274 55.4795 110.281C55.5297 110.287 55.5781 110.304 55.6218 110.33C55.7375 110.392 55.8375 110.481 55.9138 110.589C55.9624 110.574 56.0134 110.57 56.0636 110.577C56.1138 110.583 56.1622 110.6 56.2058 110.626C56.2308 110.638 56.2549 110.653 56.278 110.668C56.2363 110.386 56.1297 110.117 55.9668 109.883C55.8039 109.65 55.5892 109.459 55.3399 109.325C54.8489 109.076 54.4462 109.253 54.4023 109.716C54.4189 109.722 54.436 109.73 54.4558 109.738C54.5708 109.801 54.67 109.889 54.7457 109.997Z" fill="#5B677E"/>
<path d="M55.1409 111.503C55.0713 111.466 55.012 111.412 54.9683 111.346C54.9246 111.28 54.8979 111.203 54.8906 111.124V111.075C54.8906 111.047 54.9142 111.035 54.9441 111.049C54.9589 111.057 54.9717 111.068 54.9811 111.081C54.9904 111.095 54.9961 111.111 54.9976 111.127V111.176C55.0018 111.223 55.0175 111.268 55.0434 111.307C55.0693 111.347 55.1045 111.378 55.1457 111.4C55.2276 111.441 55.2933 111.408 55.2933 111.326V109.21C55.2933 109.18 55.3169 109.169 55.3468 109.183C55.3615 109.19 55.374 109.201 55.3834 109.215C55.3927 109.229 55.3986 109.244 55.4003 109.261V111.378C55.3918 111.516 55.2789 111.574 55.1409 111.503Z" fill="#5B677E"/>
<path d="M110.221 32.2742L103.847 35.5016L103.648 35.4014L110.023 32.1756L110.221 32.2742Z" fill="#5B677E"/>
<path d="M110.846 32.591L104.472 35.8185L104.273 35.7177L110.648 32.4903L110.846 32.591Z" fill="#5B677E"/>
<path d="M111.472 32.9079L105.099 36.1353L104.9 36.0351L111.274 32.8077L111.472 32.9079Z" fill="#5B677E"/>
<path d="M112.098 33.2247L105.724 36.4522L105.525 36.352L111.899 33.1245L112.098 33.2247Z" fill="#5B677E"/>
<path d="M72.1227 64.2433L65.7492 67.4707L65.5508 67.3705L71.9243 64.1431L72.1227 64.2433Z" fill="#5B677E"/>
<path d="M72.7477 64.5601L66.3742 67.7876L66.1758 67.6874L72.5493 64.4599L72.7477 64.5601Z" fill="#5B677E"/>
<path d="M73.3747 64.877L67.0012 68.1044L66.8027 68.0042L73.1768 64.7768L73.3747 64.877Z" fill="#5B677E"/>
<path d="M73.9983 65.1933L67.6242 68.4207L67.4258 68.3205L73.7999 65.0931L73.9983 65.1933Z" fill="#5B677E"/>
<path d="M151.361 140.963L110.072 161.823V156.721L151.361 135.87V140.963Z" fill="#CA9761"/>
<path d="M110.073 161.824L79.084 146.171V141.08L110.073 156.733V161.824Z" fill="#EBAB54"/>
<path d="M151.36 135.872L110.072 156.729L79.082 141.066L120.371 120.222L151.36 135.872Z" fill="#F2B665"/>
<path d="M110.073 156.792L79.084 141.14V141.079L79.1439 141.049L110.074 156.671L110.073 156.792Z" fill="#F0C673"/>
<path d="M110.072 156.793L151.361 135.932V135.871L151.301 135.841L110.074 156.672L110.072 156.793Z" fill="#F0DAAF"/>
<path d="M110.074 156.732L151.363 135.871L110.074 156.732Z" fill="#CAB093"/>
<path d="M97.9926 153.658L94.1953 151.736V148.762L97.9926 150.684V153.658Z" fill="#FBF2D2"/>
<path d="M94.1953 148.764L97.9926 150.685L139.531 129.882L135.733 127.96L94.1953 148.764Z" fill="#FFF6D6"/>
<path d="M95.1842 139.572L89.0171 142.719L84.7871 140.619L90.9531 137.472L95.1842 139.572Z" fill="white"/>
<path d="M89.2762 141.84L89.1265 141.916L86.3828 140.554L86.5326 140.478L89.2762 141.84Z" fill="#5B677E"/>
<path d="M89.4494 141.752L89.3745 141.79L86.6309 140.428L86.7057 140.389L89.4494 141.752Z" fill="#5B677E"/>
<path d="M89.6213 141.663L89.5464 141.701L86.8027 140.339L86.8776 140.301L89.6213 141.663Z" fill="#5B677E"/>
<path d="M89.7951 141.574L89.7202 141.613L86.9766 140.251L87.0514 140.213L89.7951 141.574Z" fill="#5B677E"/>
<path d="M89.9689 141.485L89.8941 141.524L87.1504 140.162L87.2253 140.123L89.9689 141.485Z" fill="#5B677E"/>
<path d="M90.2182 141.359L90.0684 141.435L87.3242 140.075L87.474 139.998L90.2182 141.359Z" fill="#5B677E"/>
<path d="M90.8869 141.017L90.812 141.056L88.0684 139.693L88.1432 139.655L90.8869 141.017Z" fill="#5B677E"/>
<path d="M91.0607 140.929L90.9859 140.968L88.2422 139.606L88.3171 139.567L91.0607 140.929Z" fill="#5B677E"/>
<path d="M91.3075 140.801L91.1577 140.878L88.4141 139.516L88.5638 139.439L91.3075 140.801Z" fill="#5B677E"/>
<path d="M90.4657 141.232L90.3159 141.309L87.5723 139.946L87.722 139.87L90.4657 141.232Z" fill="#5B677E"/>
<path d="M90.7137 141.105L90.564 141.182L87.8203 139.82L87.9701 139.743L90.7137 141.105Z" fill="#5B677E"/>
<path d="M91.5555 140.674L91.4058 140.75L88.6621 139.388L88.8119 139.311L91.5555 140.674Z" fill="#5B677E"/>
<path d="M91.7306 140.587L91.6558 140.625L88.9121 139.263L88.987 139.225L91.7306 140.587Z" fill="#5B677E"/>
<path d="M91.9025 140.499L91.8276 140.537L89.084 139.175L89.1589 139.137L91.9025 140.499Z" fill="#5B677E"/>
<path d="M92.0744 140.41L91.9995 140.448L89.2559 139.086L89.3307 139.048L92.0744 140.41Z" fill="#5B677E"/>
<path d="M92.2502 140.322L92.1753 140.36L89.4316 138.998L89.5065 138.959L92.2502 140.322Z" fill="#5B677E"/>
<path d="M92.4969 140.195L92.3472 140.271L89.6035 138.909L89.7533 138.833L92.4969 140.195Z" fill="#5B677E"/>
<path d="M93.1662 139.853L93.0913 139.892L90.3477 138.529L90.4225 138.492L93.1662 139.853Z" fill="#5B677E"/>
<path d="M93.3381 139.765L93.2632 139.803L90.5195 138.441L90.5944 138.403L93.3381 139.765Z" fill="#5B677E"/>
<path d="M93.5887 139.638L93.439 139.714L90.6953 138.352L90.8451 138.276L93.5887 139.638Z" fill="#5B677E"/>
<path d="M92.745 140.069L92.5952 140.145L89.8516 138.783L90.0013 138.707L92.745 140.069Z" fill="#5B677E"/>
<path d="M92.993 139.942L92.8433 140.018L90.0996 138.656L90.2494 138.58L92.993 139.942Z" fill="#5B677E"/>
<path d="M103.479 142.29L95.1475 146.51L91.1855 144.506L99.5166 140.281L103.479 142.29Z" fill="white"/>
<path d="M138.175 138.09L135.801 139.293C135.712 139.337 135.712 139.41 135.801 139.456L138.175 140.658C138.226 140.681 138.28 140.692 138.336 140.692C138.391 140.692 138.445 140.681 138.496 140.658L140.871 139.456C140.959 139.411 140.959 139.339 140.871 139.293L138.496 138.09C138.445 138.068 138.391 138.056 138.336 138.056C138.28 138.056 138.226 138.068 138.175 138.09ZM140.616 139.29C140.707 139.336 140.707 139.411 140.616 139.457L138.499 140.528C138.447 140.551 138.391 140.562 138.335 140.562C138.278 140.562 138.223 140.551 138.171 140.528L136.054 139.457C135.963 139.411 135.963 139.336 136.054 139.29L138.171 138.218C138.223 138.195 138.278 138.183 138.335 138.183C138.391 138.183 138.447 138.195 138.499 138.218L140.616 139.29Z" fill="#5B677E"/>
<path d="M138.747 140.019L138.597 140.095L136.967 139.269L137.117 139.194L138.747 140.019Z" fill="#5B677E"/>
<path d="M136.828 139.124L137.033 139.435L137.237 139.331L137.442 139.228L136.828 139.124Z" fill="#5B677E"/>
<path d="M139.761 139.505L139.611 139.581L137.98 138.756L138.131 138.68L139.761 139.505Z" fill="#5B677E"/>
<path d="M137.844 138.61L138.049 138.921L138.253 138.817L138.457 138.714L137.844 138.61Z" fill="#5B677E"/>
<path d="M138.48 140.381L138.33 140.305L140.177 139.371L140.327 139.446L138.48 140.381Z" fill="#5B677E"/>
<path d="M141.369 136.472L138.994 137.674C138.906 137.719 138.906 137.791 138.994 137.836L141.369 139.039C141.42 139.062 141.474 139.073 141.529 139.073C141.585 139.073 141.639 139.062 141.69 139.039L144.065 137.836C144.153 137.791 144.153 137.719 144.065 137.674L141.69 136.472C141.639 136.45 141.585 136.438 141.529 136.438C141.474 136.438 141.42 136.45 141.369 136.472ZM143.81 137.672C143.901 137.718 143.901 137.792 143.81 137.838L141.693 138.91C141.641 138.933 141.585 138.944 141.529 138.944C141.472 138.944 141.416 138.933 141.365 138.91L139.247 137.838C139.157 137.792 139.157 137.718 139.247 137.672L141.365 136.6C141.416 136.577 141.472 136.565 141.529 136.565C141.585 136.565 141.641 136.577 141.693 136.6L143.81 137.672Z" fill="#5B677E"/>
<path d="M142.238 137.548C142.123 137.598 142 137.624 141.875 137.624C141.75 137.624 141.626 137.598 141.512 137.548L140.672 137.122L141.399 136.755L142.237 137.18C142.438 137.282 142.438 137.446 142.238 137.548Z" fill="#5B677E"/>
<path d="M143.123 137.952L143.038 137.995L142.16 137.551L142.245 137.507L143.123 137.952Z" fill="#5B677E"/>
<path d="M142.775 138.188C142.729 138.164 142.729 138.126 142.775 138.103L143.331 137.821C143.358 137.809 143.387 137.803 143.416 137.803C143.446 137.803 143.475 137.809 143.501 137.821L142.775 138.188Z" fill="#5B677E"/>
<path d="M139.553 137.69L140.392 138.115C140.507 138.165 140.631 138.191 140.756 138.191C140.881 138.191 141.004 138.165 141.119 138.115C141.319 138.013 141.319 137.848 141.119 137.746L140.28 137.322L139.553 137.69ZM141.044 137.784C141.204 137.865 141.204 137.996 141.044 138.077C140.953 138.117 140.855 138.137 140.755 138.137C140.656 138.137 140.558 138.117 140.467 138.077L139.702 137.69L140.28 137.398L141.044 137.784Z" fill="#5B677E"/>
<path d="M142.002 138.519L141.917 138.562L141.039 138.118L141.124 138.075L142.002 138.519Z" fill="#5B677E"/>
<path d="M141.656 138.755C141.609 138.732 141.609 138.693 141.656 138.67L142.212 138.388C142.239 138.376 142.268 138.37 142.297 138.37C142.327 138.37 142.355 138.376 142.382 138.388L141.656 138.755Z" fill="#5B677E"/>
<path d="M144.564 134.855L142.189 136.057C142.101 136.102 142.101 136.174 142.189 136.22L144.564 137.422C144.614 137.445 144.669 137.456 144.724 137.456C144.78 137.456 144.834 137.445 144.885 137.422L147.26 136.22C147.348 136.175 147.348 136.103 147.26 136.057L144.885 134.855C144.834 134.832 144.78 134.821 144.724 134.821C144.669 134.821 144.614 134.832 144.564 134.855ZM147.005 136.055C147.096 136.101 147.096 136.175 147.005 136.221L144.888 137.292C144.836 137.315 144.78 137.327 144.724 137.327C144.667 137.327 144.611 137.315 144.559 137.292L142.442 136.221C142.351 136.175 142.351 136.101 142.442 136.055L144.559 134.983C144.611 134.96 144.667 134.948 144.724 134.948C144.78 134.948 144.836 134.96 144.888 134.983L147.005 136.055Z" fill="#5B677E"/>
<path d="M144.188 136.357C144.199 136.316 144.219 136.278 144.247 136.247C144.275 136.216 144.31 136.192 144.348 136.177C144.459 136.126 144.58 136.098 144.702 136.095C144.713 136.055 144.733 136.017 144.761 135.986C144.789 135.955 144.824 135.931 144.862 135.917C144.973 135.865 145.094 135.837 145.216 135.835C145.227 135.794 145.247 135.757 145.275 135.726C145.303 135.695 145.338 135.671 145.376 135.656C145.399 135.645 145.421 135.635 145.445 135.627C144.933 135.431 144.366 135.443 143.863 135.662C143.431 135.879 143.407 136.229 143.79 136.462C143.803 136.454 143.817 136.445 143.832 136.438C143.944 136.386 144.065 136.358 144.188 136.357Z" fill="#5B677E"/>
<path d="M145.673 136.755C145.603 136.786 145.528 136.802 145.452 136.802C145.376 136.802 145.301 136.786 145.231 136.755L145.189 136.734C145.164 136.721 145.164 136.701 145.189 136.688C145.203 136.682 145.218 136.678 145.234 136.678C145.249 136.678 145.265 136.682 145.279 136.688L145.321 136.709C145.362 136.727 145.407 136.737 145.452 136.737C145.496 136.737 145.541 136.727 145.582 136.709C145.654 136.673 145.654 136.614 145.582 136.578L143.742 135.645C143.716 135.632 143.716 135.612 143.742 135.599C143.756 135.593 143.771 135.59 143.787 135.59C143.802 135.59 143.818 135.593 143.832 135.599L145.673 136.532C145.795 136.593 145.795 136.694 145.673 136.755Z" fill="#5B677E"/>
<path d="M121.58 121.951L114.581 125.494L114.363 125.386L121.362 121.842L121.58 121.951Z" fill="#5B677E"/>
<path d="M122.267 122.298L115.268 125.842L115.051 125.734L122.05 122.19L122.267 122.298Z" fill="#5B677E"/>
<path d="M122.953 122.645L115.954 126.189L115.736 126.081L122.735 122.537L122.953 122.645Z" fill="#5B677E"/>
<path d="M123.638 122.994L116.64 126.538L116.422 126.429L123.424 122.883L123.638 122.994Z" fill="#5B677E"/>
<path d="M114.322 150.38L107.323 153.924L107.105 153.815L114.104 150.272L114.322 150.38Z" fill="#5B677E"/>
<path d="M115.009 150.727L108.011 154.271L107.793 154.162L114.792 150.619L115.009 150.727Z" fill="#5B677E"/>
<path d="M115.695 151.075L108.696 154.619L108.479 154.511L115.477 150.967L115.695 151.075Z" fill="#5B677E"/>
<path d="M116.382 151.423L109.384 154.967L109.166 154.859L116.165 151.315L116.382 151.423Z" fill="#5B677E"/>
<path opacity="0.05" d="M108.15 158.636L136.726 152.885L205.97 118.268L192.298 111.345L108.15 158.636Z" fill="black"/>
<path opacity="0.05" d="M31.9015 137.475L39.8501 136.982L59.6349 146.83V143.005L31.9004 129.167L31.9015 137.475Z" fill="black"/>
<path opacity="0.05" d="M72.3546 157.601L80.3032 157.108L100.088 166.956V163.131L72.3535 149.292L72.3546 157.601Z" fill="black"/>
<path d="M197.782 118.497L159.825 137.721L159.822 38.4268L197.782 19.2186V118.497Z" fill="#CA9761"/>
<path d="M159.824 137.721L121.867 118.497V19.2202L159.824 38.4436V137.721Z" fill="#EBAB54"/>
<path d="M197.779 19.219L159.822 38.4381L121.865 19.1995L159.822 0L197.779 19.219Z" fill="#F2B665"/>
<path d="M159.824 38.5297L121.867 19.3058V19.2186L121.954 19.1747L159.824 38.3547V38.5297Z" fill="#F0C673"/>
<path d="M159.824 38.5297L197.781 19.3058V19.2186L197.695 19.1747L159.825 38.3553L159.824 38.5297Z" fill="#F0DAAF"/>
<path d="M159.824 38.443L197.781 19.2186L159.824 38.443Z" fill="#CAB093"/>
<path d="M159.825 43.1815V38.4429C159.825 38.4429 157.666 114.359 159.825 137.72V131.7C158.989 119.054 159.408 48.5461 159.825 43.1815Z" fill="#CA9761"/>
<path d="M159.824 135.687V39.2018C159.407 44.5664 158.988 123.04 159.824 135.687Z" fill="#AC7C47"/>
<path d="M142.39 49.5783L136.912 46.8042V26.9401L142.39 29.7142V49.5783Z" fill="#FBF2D2"/>
<path d="M136.91 26.9425L142.387 29.716L180.709 10.5734L175.232 7.79977L136.91 26.9425Z" fill="#FFF6D6"/>
<path d="M134.74 35.4999L125.163 32.6776L124.033 26.6332L133.61 29.455L134.74 35.4999Z" fill="white"/>
<path d="M126.52 32.0742L126.287 32.0054L125.555 28.0847L125.787 28.1534L126.52 32.0742Z" fill="#5B677E"/>
<path d="M126.791 32.1538L126.674 32.1197L125.941 28.199L126.058 28.2331L126.791 32.1538Z" fill="#5B677E"/>
<path d="M127.058 32.2329L126.942 32.1988L126.209 28.278L126.326 28.3122L127.058 32.2329Z" fill="#5B677E"/>
<path d="M127.326 32.312L127.21 32.2778L126.477 28.3571L126.593 28.3912L127.326 32.312Z" fill="#5B677E"/>
<path d="M127.596 32.3916L127.479 32.3575L126.746 28.4367L126.863 28.4709L127.596 32.3916Z" fill="#5B677E"/>
<path d="M127.981 32.5048L127.748 32.436L127.016 28.5153L127.248 28.5841L127.981 32.5048Z" fill="#5B677E"/>
<path d="M129.021 32.8133L128.905 32.7792L128.172 28.8585L128.288 28.8926L129.021 32.8133Z" fill="#5B677E"/>
<path d="M129.291 32.891L129.175 32.8569L128.441 28.9362L128.558 28.9703L129.291 32.891Z" fill="#5B677E"/>
<path d="M129.677 33.0042L129.444 32.9354L128.711 29.0147L128.944 29.0835L129.677 33.0042Z" fill="#5B677E"/>
<path d="M128.366 32.6185L128.134 32.5497L127.4 28.629L127.633 28.6978L128.366 32.6185Z" fill="#5B677E"/>
<path d="M128.751 32.7323L128.518 32.6635L127.785 28.7428L128.018 28.8116L128.751 32.7323Z" fill="#5B677E"/>
<path d="M130.061 33.1179L129.828 33.0492L129.096 29.1279L129.328 29.1967L130.061 33.1179Z" fill="#5B677E"/>
<path d="M130.33 33.1974L130.214 33.1632L129.48 29.2425L129.597 29.2766L130.33 33.1974Z" fill="#5B677E"/>
<path d="M130.599 33.2764L130.483 33.2423L129.75 29.3216L129.867 29.3557L130.599 33.2764Z" fill="#5B677E"/>
<path d="M130.869 33.356L130.753 33.3219L130.02 29.4012L130.136 29.4353L130.869 33.356Z" fill="#5B677E"/>
<path d="M131.138 33.4346L131.022 33.4005L130.289 29.4797L130.406 29.5139L131.138 33.4346Z" fill="#5B677E"/>
<path d="M131.524 33.5489L131.291 33.4801L130.559 29.5594L130.791 29.6282L131.524 33.5489Z" fill="#5B677E"/>
<path d="M132.565 33.8549L132.448 33.8208L131.715 29.9001L131.831 29.9342L132.565 33.8549Z" fill="#5B677E"/>
<path d="M132.832 33.934L132.715 33.8999L131.982 29.9792L132.098 30.0133L132.832 33.934Z" fill="#5B677E"/>
<path d="M133.217 34.0478L132.985 33.979L132.252 30.0583L132.485 30.1271L133.217 34.0478Z" fill="#5B677E"/>
<path d="M131.909 33.6621L131.677 33.5933L130.943 29.6726L131.176 29.7414L131.909 33.6621Z" fill="#5B677E"/>
<path d="M132.294 33.7758L132.061 33.707L131.328 29.7863L131.561 29.8551L132.294 33.7758Z" fill="#5B677E"/>
<path d="M157.142 45.9279L145.119 39.8385V34.0482L157.142 40.1359V45.9279Z" fill="white"/>
<path d="M127.52 114.857L123.248 112.691C123.088 112.61 122.961 112.675 122.961 112.836V117.162C122.969 117.253 123 117.34 123.05 117.416C123.1 117.491 123.168 117.553 123.248 117.595L127.52 119.762C127.681 119.843 127.808 119.778 127.808 119.617V115.29C127.8 115.199 127.769 115.112 127.719 115.036C127.669 114.961 127.6 114.899 127.52 114.857ZM127.585 119.271C127.585 119.434 127.451 119.503 127.289 119.421L123.48 117.492C123.398 117.448 123.328 117.384 123.276 117.306C123.225 117.228 123.193 117.137 123.185 117.044V113.186C123.185 113.024 123.317 112.954 123.48 113.037L127.289 114.965C127.372 115.009 127.442 115.073 127.493 115.152C127.545 115.23 127.576 115.32 127.585 115.414V119.271Z" fill="#5B677E"/>
<path d="M124.605 117.373L124.338 117.237V114.266L124.605 114.403V117.373Z" fill="#5B677E"/>
<path d="M124.471 113.946L124.104 114.506L124.471 114.692L124.838 114.878L124.471 113.946Z" fill="#5B677E"/>
<path d="M126.431 118.298L126.164 118.161V115.191L126.431 115.327V118.298Z" fill="#5B677E"/>
<path d="M126.297 114.871L125.93 115.431L126.297 115.617L126.665 115.803L126.297 114.871Z" fill="#5B677E"/>
<path d="M123.725 117.333V117.062L127.046 118.744V119.015L123.725 117.333Z" fill="#5B677E"/>
<path d="M133.266 117.767L128.994 115.601C128.834 115.52 128.707 115.585 128.707 115.746V120.072C128.715 120.163 128.746 120.25 128.796 120.326C128.846 120.402 128.914 120.463 128.994 120.505L133.266 122.672C133.427 122.753 133.555 122.688 133.555 122.527V118.2C133.546 118.11 133.515 118.022 133.465 117.947C133.414 117.871 133.346 117.809 133.266 117.767ZM133.331 122.181C133.331 122.344 133.199 122.413 133.035 122.331L129.226 120.402C129.144 120.358 129.074 120.294 129.022 120.216C128.971 120.138 128.939 120.047 128.931 119.954V116.096C128.931 115.934 129.063 115.864 129.226 115.947L133.035 117.875C133.118 117.919 133.188 117.983 133.24 118.061C133.291 118.14 133.322 118.23 133.331 118.324V122.181Z" fill="#5B677E"/>
<path d="M132.138 119.924C131.956 119.827 131.8 119.685 131.686 119.512C131.572 119.338 131.503 119.139 131.484 118.931V117.402L132.791 118.064V119.592C132.792 119.959 132.5 120.107 132.138 119.924Z" fill="#5B677E"/>
<path d="M132.215 121.496L132.062 121.419V119.82L132.215 119.898V121.496Z" fill="#5B677E"/>
<path d="M131.486 121.235C131.486 121.149 131.554 121.114 131.639 121.157L132.64 121.664C132.683 121.687 132.72 121.72 132.746 121.76C132.773 121.801 132.789 121.847 132.793 121.896L131.486 121.235Z" fill="#5B677E"/>
<path d="M129.471 116.382V117.911C129.489 118.118 129.558 118.318 129.672 118.492C129.787 118.665 129.942 118.807 130.124 118.904C130.486 119.087 130.778 118.939 130.778 118.573V117.044L129.471 116.382ZM130.644 118.504C130.644 118.795 130.41 118.912 130.124 118.768C129.98 118.69 129.856 118.578 129.766 118.44C129.675 118.302 129.62 118.143 129.605 117.978V116.585L130.644 117.111V118.504Z" fill="#5B677E"/>
<path d="M130.2 120.476L130.047 120.398V118.8L130.2 118.878V120.476Z" fill="#5B677E"/>
<path d="M129.471 120.214C129.471 120.129 129.539 120.094 129.624 120.137L130.625 120.644C130.668 120.666 130.704 120.699 130.731 120.74C130.757 120.78 130.774 120.827 130.778 120.876L129.471 120.214Z" fill="#5B677E"/>
<path d="M139.014 120.678L134.742 118.511C134.581 118.431 134.455 118.497 134.455 118.657V122.983C134.463 123.074 134.493 123.162 134.543 123.239C134.593 123.315 134.662 123.377 134.742 123.42L139.014 125.587C139.174 125.666 139.301 125.601 139.301 125.441V121.114C139.293 121.023 139.262 120.935 139.212 120.859C139.162 120.783 139.094 120.721 139.014 120.678ZM139.077 125.092C139.077 125.257 138.945 125.324 138.782 125.242L134.973 123.313C134.89 123.269 134.82 123.205 134.769 123.127C134.717 123.048 134.686 122.958 134.678 122.864V119.007C134.678 118.845 134.81 118.775 134.973 118.858L138.782 120.787C138.864 120.831 138.934 120.895 138.986 120.973C139.038 121.052 139.069 121.142 139.077 121.236V125.092Z" fill="#5B677E"/>
<path d="M136.01 121.517C136.087 121.494 136.167 121.488 136.247 121.498C136.327 121.508 136.403 121.535 136.472 121.576C136.656 121.674 136.815 121.814 136.936 121.985C137.013 121.963 137.094 121.957 137.174 121.968C137.254 121.978 137.33 122.005 137.4 122.046C137.583 122.144 137.742 122.284 137.862 122.455C137.94 122.433 138.02 122.426 138.1 122.437C138.18 122.447 138.257 122.473 138.326 122.515C138.365 122.535 138.403 122.557 138.439 122.582C138.373 122.134 138.204 121.708 137.946 121.338C137.688 120.968 137.348 120.665 136.953 120.453C136.175 120.058 135.536 120.338 135.467 121.072C135.494 121.082 135.52 121.094 135.547 121.108C135.731 121.206 135.889 121.346 136.01 121.517Z" fill="#5B677E"/>
<path d="M136.636 123.902C136.525 123.843 136.43 123.757 136.361 123.651C136.291 123.546 136.249 123.424 136.238 123.298V123.22C136.238 123.174 136.274 123.156 136.32 123.18C136.342 123.192 136.361 123.21 136.376 123.231C136.39 123.253 136.398 123.277 136.401 123.303V123.381C136.407 123.455 136.432 123.527 136.473 123.589C136.514 123.651 136.57 123.701 136.635 123.736C136.764 123.802 136.869 123.748 136.869 123.618V120.265C136.869 120.219 136.906 120.2 136.951 120.223C136.974 120.235 136.993 120.253 137.008 120.275C137.022 120.297 137.03 120.322 137.032 120.348V123.701C137.033 123.924 136.854 124.014 136.636 123.902Z" fill="#5B677E"/>
<path d="M161.816 4.2485L151.715 9.36292L151.4 9.20369L161.501 4.08926L161.816 4.2485Z" fill="#5B677E"/>
<path d="M162.808 4.7507L152.707 9.86512L152.393 9.70589L162.493 4.59146L162.808 4.7507Z" fill="#5B677E"/>
<path d="M163.798 5.25212L153.697 10.3682L153.383 10.2089L163.484 5.09451L163.798 5.25212Z" fill="#5B677E"/>
<path d="M164.79 5.75426L154.689 10.8687L154.375 10.7095L164.476 5.59503L164.79 5.75426Z" fill="#5B677E"/>
<path d="M163.546 27.2791L153.445 32.3936L153.131 32.2343L163.232 27.1199L163.546 27.2791Z" fill="#5B677E"/>
<path d="M164.537 27.7816L154.438 32.8961L154.123 32.7368L164.224 27.6224L164.537 27.7816Z" fill="#5B677E"/>
<path d="M165.529 28.2833L155.428 33.3977L155.113 33.2385L165.214 28.1241L165.529 28.2833Z" fill="#5B677E"/>
<path d="M166.517 28.7852L156.416 33.8997L156.102 33.7404L166.202 28.626L166.517 28.7852Z" fill="#5B677E"/>
<path opacity="0.05" d="M26.4609 186.25L47.4486 184.824L68.2481 174.244L43.1486 163.134L26.4609 186.25Z" fill="black"/>
<path d="M53.258 172.723L26.6289 186.209V168.616L53.2601 155.141L53.258 172.723Z" fill="#CA9761"/>
<path d="M26.6291 186.212L0 172.726V155.141L26.6291 168.627V186.212Z" fill="#EBAB54"/>
<path d="M53.2595 155.141L26.631 168.624L0.00195312 155.128L26.631 141.658L53.2595 155.141Z" fill="#F2B665"/>
<path d="M26.6291 168.688L0 155.202V155.141L0.060439 155.11L26.6291 168.566V168.688Z" fill="#F0C673"/>
<path d="M26.6289 168.688L53.258 155.202V155.141L53.1975 155.11L26.6289 168.566V168.688Z" fill="#F0DAAF"/>
<path d="M26.6289 168.627L53.258 155.141L26.6289 168.627Z" fill="#CAB093"/>
<path d="M26.6285 171.952V168.627C26.6285 168.627 25.1133 169.819 26.6285 186.209V181.985C26.0418 173.111 26.3343 175.716 26.6285 171.952Z" fill="#CA9761"/>
<path d="M26.6273 184.783V169.16C26.3348 172.925 26.0412 175.909 26.6273 184.783Z" fill="#AC7C47"/>
<path d="M14.3974 169.472L10.5547 167.526V160.558L14.3974 162.504V169.472Z" fill="#FBF2D2"/>
<path d="M10.5527 160.558L14.3955 162.503L41.2807 149.071L37.438 147.125L10.5527 160.558Z" fill="#FFF6D6"/>
<path d="M9.03117 166.563L2.31214 164.583L1.51953 160.343L8.23804 162.322L9.03117 166.563Z" fill="white"/>
<path d="M3.26498 164.16L3.10186 164.112L2.58789 161.361L2.75101 161.409L3.26498 164.16Z" fill="#5B677E"/>
<path d="M3.45377 164.215L3.37193 164.191L2.85742 161.441L2.93926 161.465L3.45377 164.215Z" fill="#5B677E"/>
<path d="M3.6432 164.271L3.56138 164.247L3.04688 161.496L3.1287 161.52L3.6432 164.271Z" fill="#5B677E"/>
<path d="M3.83213 164.329L3.7503 164.305L3.23633 161.554L3.31816 161.578L3.83213 164.329Z" fill="#5B677E"/>
<path d="M4.02015 164.383L3.93833 164.359L3.42383 161.608L3.50566 161.632L4.02015 164.383Z" fill="#5B677E"/>
<path d="M4.28964 164.462L4.1292 164.412L3.61523 161.661L3.77835 161.709L4.28964 164.462Z" fill="#5B677E"/>
<path d="M5.02016 164.677L4.93832 164.653L4.42383 161.903L4.50565 161.926L5.02016 164.677Z" fill="#5B677E"/>
<path d="M5.20907 164.733L5.12725 164.709L4.61328 161.958L4.6951 161.982L5.20907 164.733Z" fill="#5B677E"/>
<path d="M5.47984 164.813L5.3167 164.764L4.80273 162.014L4.96587 162.062L5.47984 164.813Z" fill="#5B677E"/>
<path d="M4.56187 164.541L4.39873 164.493L3.88477 161.742L4.0479 161.79L4.56187 164.541Z" fill="#5B677E"/>
<path d="M4.83138 164.621L4.66826 164.573L4.1543 161.822L4.31742 161.871L4.83138 164.621Z" fill="#5B677E"/>
<path d="M5.74935 164.892L5.58623 164.844L5.07227 162.093L5.23538 162.141L5.74935 164.892Z" fill="#5B677E"/>
<path d="M5.9376 164.948L5.85577 164.924L5.3418 162.173L5.42363 162.197L5.9376 164.948Z" fill="#5B677E"/>
<path d="M6.12704 165.003L6.04522 164.979L5.53125 162.229L5.61307 162.252L6.12704 165.003Z" fill="#5B677E"/>
<path d="M6.31705 165.061L6.23521 165.037L5.7207 162.287L5.80254 162.31L6.31705 165.061Z" fill="#5B677E"/>
<path d="M6.50594 165.114L6.42412 165.09L5.91016 162.34L5.99198 162.363L6.50594 165.114Z" fill="#5B677E"/>
<path d="M6.77474 165.194L6.61162 165.146L6.09766 162.395L6.26077 162.444L6.77474 165.194Z" fill="#5B677E"/>
<path d="M7.50453 165.409L7.42271 165.385L6.9082 162.634L6.99004 162.658L7.50453 165.409Z" fill="#5B677E"/>
<path d="M7.69344 165.465L7.61162 165.441L7.09766 162.69L7.17948 162.714L7.69344 165.465Z" fill="#5B677E"/>
<path d="M7.96474 165.544L7.8016 165.496L7.28711 162.745L7.45023 162.794L7.96474 165.544Z" fill="#5B677E"/>
<path d="M7.04624 165.274L6.88312 165.225L6.36914 162.474L6.53228 162.523L7.04624 165.274Z" fill="#5B677E"/>
<path d="M7.31576 165.354L7.15264 165.306L6.63867 162.555L6.80179 162.603L7.31576 165.354Z" fill="#5B677E"/>
<path d="M24.7478 173.879L16.3125 169.606V165.544L24.7478 169.816V173.879Z" fill="white"/>
<path d="M3.96496 169.753L0.966724 168.236C0.856015 168.182 0.765625 168.225 0.765625 168.338V171.371C0.771109 171.435 0.792408 171.497 0.827549 171.55C0.862691 171.603 0.91055 171.647 0.966724 171.677L3.96496 173.193C4.07567 173.248 4.16606 173.204 4.16606 173.092V170.059C4.16038 169.995 4.13901 169.933 4.10389 169.88C4.06877 169.826 4.02101 169.783 3.96496 169.753ZM4.00935 172.85C4.00935 172.965 3.91683 173.012 3.80238 172.955L1.12824 171.601C1.07047 171.57 1.02123 171.525 0.985069 171.47C0.948904 171.415 0.926957 171.352 0.921252 171.286V168.578C0.921252 168.462 1.01379 168.415 1.12824 168.473L3.80238 169.827C3.86015 169.858 3.90937 169.902 3.94554 169.957C3.9817 170.012 4.00365 170.076 4.00935 170.141V172.85Z" fill="#5B677E"/>
<path d="M1.92175 171.52L1.73242 171.424V169.34L1.92175 169.436V171.52Z" fill="#5B677E"/>
<path d="M1.8281 169.116L1.57031 169.508L1.8281 169.639L2.0859 169.769L1.8281 169.116Z" fill="#5B677E"/>
<path d="M3.203 172.167L3.01367 172.071V169.989L3.203 170.085V172.167Z" fill="#5B677E"/>
<path d="M3.10739 169.765L2.84961 170.157L3.10739 170.288L3.36518 170.418L3.10739 169.765Z" fill="#5B677E"/>
<path d="M1.30078 171.492V171.3L3.63102 172.48V172.672L1.30078 171.492Z" fill="#5B677E"/>
<path d="M7.99692 171.796L5.00188 170.28C4.89064 170.226 4.80078 170.269 4.80078 170.382V173.415C4.80623 173.479 4.8275 173.54 4.86264 173.594C4.89778 173.647 4.94567 173.691 5.00188 173.721L7.99692 175.238C8.1087 175.292 8.198 175.248 8.198 175.136V172.102C8.19247 172.038 8.17116 171.977 8.13603 171.923C8.10089 171.87 8.05306 171.826 7.99692 171.796ZM8.04077 174.894C8.04077 175.009 7.94823 175.056 7.83378 174.999L5.15965 173.645C5.10188 173.614 5.05265 173.569 5.01649 173.514C4.98032 173.459 4.95838 173.396 4.95267 173.33V170.622C4.95267 170.506 5.04519 170.46 5.15965 170.517L7.83378 171.871C7.89155 171.902 7.94079 171.947 7.97696 172.002C8.01312 172.057 8.03507 172.12 8.04077 172.186V174.894Z" fill="#5B677E"/>
<path d="M7.20444 173.309C7.07671 173.241 6.96785 173.142 6.88778 173.02C6.80772 172.899 6.759 172.759 6.74609 172.613V171.544L7.66278 172.008V173.08C7.66278 173.331 7.46008 173.439 7.20444 173.309Z" fill="#5B677E"/>
<path d="M7.25736 174.413L7.15039 174.358V173.237L7.25736 173.291V174.413Z" fill="#5B677E"/>
<path d="M6.74609 174.228C6.74609 174.168 6.79477 174.144 6.85307 174.174L7.55529 174.53C7.58507 174.546 7.61046 174.569 7.62914 174.598C7.64782 174.626 7.6592 174.659 7.66226 174.692L6.74609 174.228Z" fill="#5B677E"/>
<path d="M5.33203 170.824V171.898C5.34486 172.044 5.39353 172.184 5.47361 172.305C5.55368 172.427 5.66258 172.526 5.79038 172.594C6.04388 172.723 6.24872 172.619 6.24872 172.363V171.29L5.33203 170.824ZM6.15459 172.314C6.15459 172.517 5.99414 172.6 5.79038 172.498C5.68887 172.444 5.60236 172.365 5.53874 172.268C5.47513 172.172 5.43642 172.06 5.42616 171.945V170.97L6.15459 171.338V172.314Z" fill="#5B677E"/>
<path d="M5.84525 173.696L5.73828 173.641V172.52L5.84525 172.574V173.696Z" fill="#5B677E"/>
<path d="M5.33203 173.513C5.33203 173.452 5.38071 173.428 5.439 173.458L6.14122 173.814C6.17107 173.83 6.1965 173.853 6.21519 173.882C6.23388 173.91 6.24524 173.943 6.2482 173.977L5.33203 173.513Z" fill="#5B677E"/>
<path d="M12.0282 173.838L9.03313 172.321C8.92242 172.267 8.83203 172.311 8.83203 172.423V175.456C8.83771 175.52 8.85908 175.582 8.8942 175.635C8.92932 175.689 8.97708 175.732 9.03313 175.762L12.0282 177.279C12.1394 177.333 12.2293 177.289 12.2293 177.177V174.144C12.2237 174.08 12.2024 174.019 12.1672 173.965C12.1321 173.912 12.0843 173.868 12.0282 173.838ZM12.0731 176.935C12.0731 177.051 11.9806 177.098 11.8661 177.041L9.19197 175.687C9.1342 175.656 9.08498 175.611 9.04882 175.556C9.01265 175.501 8.9907 175.438 8.985 175.372V172.667C8.985 172.551 9.07752 172.505 9.19197 172.562L11.8661 173.916C11.9238 173.947 11.9731 173.992 12.0092 174.047C12.0454 174.102 12.0673 174.165 12.0731 174.231V176.935Z" fill="#5B677E"/>
<path d="M9.91932 174.426C9.97351 174.41 10.0302 174.406 10.0861 174.413C10.142 174.421 10.1959 174.439 10.2445 174.468C10.3733 174.537 10.4844 174.635 10.5691 174.755C10.6233 174.74 10.6801 174.735 10.736 174.742C10.7919 174.75 10.8457 174.768 10.8943 174.797C11.0232 174.866 11.1345 174.964 11.2195 175.084C11.2736 175.068 11.3304 175.064 11.3862 175.071C11.442 175.078 11.4957 175.097 11.5441 175.126C11.5716 175.14 11.5982 175.155 11.6238 175.172C11.5775 174.858 11.459 174.559 11.2778 174.3C11.0967 174.04 10.858 173.828 10.5809 173.679C10.0354 173.402 9.5872 173.598 9.53906 174.112C9.55837 174.119 9.57729 174.128 9.59575 174.137C9.72446 174.207 9.8353 174.305 9.91932 174.426Z" fill="#5B677E"/>
<path d="M10.3587 176.101C10.281 176.059 10.2147 175.999 10.1661 175.925C10.1174 175.851 10.0878 175.766 10.0801 175.677V175.623C10.0801 175.591 10.1052 175.578 10.1373 175.594C10.1533 175.602 10.1669 175.615 10.1769 175.63C10.1869 175.645 10.193 175.663 10.1945 175.681V175.735C10.1991 175.787 10.2165 175.837 10.2452 175.881C10.2739 175.925 10.3129 175.961 10.3587 175.985C10.4491 176.031 10.5229 175.994 10.5229 175.902V173.549C10.5229 173.516 10.5491 173.504 10.5801 173.52C10.5962 173.528 10.6098 173.541 10.6199 173.556C10.6299 173.571 10.6359 173.589 10.6374 173.607V175.959C10.6379 176.116 10.5133 176.179 10.3587 176.101Z" fill="#5B677E"/>
<path d="M28.0256 144.638L20.9391 148.226L20.7188 148.115L27.8052 144.527L28.0256 144.638Z" fill="#5B677E"/>
<path d="M28.7209 144.99L21.6344 148.579L21.4141 148.467L28.5005 144.879L28.7209 144.99Z" fill="#5B677E"/>
<path d="M29.4162 145.342L22.3297 148.931L22.1094 148.819L29.1958 145.231L29.4162 145.342Z" fill="#5B677E"/>
<path d="M30.1095 145.692L23.0231 149.281L22.8027 149.169L29.8892 145.581L30.1095 145.692Z" fill="#5B677E"/>
<path d="M29.2404 160.798L22.154 164.386L21.9336 164.274L29.0201 160.686L29.2404 160.798Z" fill="#5B677E"/>
<path d="M29.9355 161.148L22.8491 164.735L22.6309 164.627L29.7173 161.039L29.9355 161.148Z" fill="#5B677E"/>
<path d="M30.631 161.5L23.5446 165.088L23.3242 164.977L30.4102 161.389L30.631 161.5Z" fill="#5B677E"/>
<path d="M31.3264 161.852L24.2399 165.441L24.0195 165.329L31.106 161.741L31.3264 161.852Z" fill="#5B677E"/>
<path opacity="0.05" d="M156.299 199L177.287 197.574L198.086 186.994L172.987 175.884L156.299 199Z" fill="black"/>
<path d="M183.096 185.473L156.467 198.959V181.366L183.098 167.891L183.096 185.473Z" fill="#CA9761"/>
<path d="M156.467 198.962L129.838 185.476V167.891L156.467 181.377V198.962Z" fill="#EBAB54"/>
<path d="M183.097 167.891L156.469 181.374L129.84 167.878L156.469 154.408L183.097 167.891Z" fill="#F2B665"/>
<path d="M156.467 181.438L129.838 167.952V167.891L129.898 167.86L156.467 181.316V181.438Z" fill="#F0C673"/>
<path d="M156.467 181.438L183.096 167.952V167.891L183.035 167.86L156.467 181.316V181.438Z" fill="#F0DAAF"/>
<path d="M156.467 181.377L183.096 167.891L156.467 181.377Z" fill="#CAB093"/>
<path d="M156.466 184.702V181.377C156.466 181.377 154.951 182.569 156.466 198.959V194.735C155.88 185.861 156.172 188.466 156.466 184.702Z" fill="#CA9761"/>
<path d="M156.465 197.533V181.91C156.173 185.675 155.879 188.659 156.465 197.533Z" fill="#AC7C47"/>
<path d="M144.235 182.222L140.393 180.276V173.308L144.235 175.254V182.222Z" fill="#FBF2D2"/>
<path d="M140.391 173.308L144.233 175.253L171.119 161.821L167.276 159.875L140.391 173.308Z" fill="#FFF6D6"/>
<path d="M138.869 179.313L132.15 177.333L131.357 173.093L138.076 175.072L138.869 179.313Z" fill="white"/>
<path d="M133.103 176.91L132.94 176.862L132.426 174.111L132.589 174.159L133.103 176.91Z" fill="#5B677E"/>
<path d="M133.292 176.965L133.21 176.941L132.695 174.191L132.777 174.214L133.292 176.965Z" fill="#5B677E"/>
<path d="M133.481 177.021L133.399 176.997L132.885 174.246L132.967 174.27L133.481 177.021Z" fill="#5B677E"/>
<path d="M133.67 177.078L133.588 177.055L133.074 174.304L133.156 174.328L133.67 177.078Z" fill="#5B677E"/>
<path d="M133.858 177.133L133.776 177.109L133.262 174.358L133.344 174.382L133.858 177.133Z" fill="#5B677E"/>
<path d="M134.128 177.212L133.967 177.162L133.453 174.411L133.616 174.459L134.128 177.212Z" fill="#5B677E"/>
<path d="M134.858 177.427L134.776 177.403L134.262 174.653L134.344 174.676L134.858 177.427Z" fill="#5B677E"/>
<path d="M135.047 177.483L134.965 177.459L134.451 174.708L134.533 174.732L135.047 177.483Z" fill="#5B677E"/>
<path d="M135.318 177.563L135.155 177.514L134.641 174.764L134.804 174.812L135.318 177.563Z" fill="#5B677E"/>
<path d="M134.4 177.291L134.237 177.242L133.723 174.492L133.886 174.54L134.4 177.291Z" fill="#5B677E"/>
<path d="M134.669 177.371L134.506 177.323L133.992 174.572L134.155 174.621L134.669 177.371Z" fill="#5B677E"/>
<path d="M135.587 177.642L135.424 177.593L134.91 174.843L135.073 174.891L135.587 177.642Z" fill="#5B677E"/>
<path d="M135.775 177.698L135.694 177.674L135.18 174.923L135.262 174.947L135.775 177.698Z" fill="#5B677E"/>
<path d="M135.965 177.753L135.883 177.729L135.369 174.979L135.451 175.002L135.965 177.753Z" fill="#5B677E"/>
<path d="M136.155 177.811L136.073 177.787L135.559 175.037L135.64 175.06L136.155 177.811Z" fill="#5B677E"/>
<path d="M136.344 177.864L136.262 177.84L135.748 175.09L135.83 175.113L136.344 177.864Z" fill="#5B677E"/>
<path d="M136.613 177.944L136.45 177.896L135.936 175.145L136.099 175.194L136.613 177.944Z" fill="#5B677E"/>
<path d="M137.342 178.159L137.261 178.135L136.746 175.384L136.828 175.408L137.342 178.159Z" fill="#5B677E"/>
<path d="M137.531 178.215L137.45 178.191L136.936 175.44L137.017 175.464L137.531 178.215Z" fill="#5B677E"/>
<path d="M137.803 178.294L137.64 178.246L137.125 175.495L137.288 175.543L137.803 178.294Z" fill="#5B677E"/>
<path d="M136.884 178.023L136.721 177.975L136.207 175.224L136.37 175.273L136.884 178.023Z" fill="#5B677E"/>
<path d="M137.154 178.104L136.991 178.055L136.477 175.305L136.64 175.353L137.154 178.104Z" fill="#5B677E"/>
<path d="M154.586 186.629L146.15 182.356V178.294L154.586 182.566V186.629Z" fill="white"/>
<path d="M133.803 182.503L130.805 180.986C130.694 180.932 130.604 180.975 130.604 181.088V184.121C130.609 184.185 130.63 184.247 130.665 184.3C130.701 184.353 130.748 184.397 130.805 184.427L133.803 185.943C133.914 185.998 134.004 185.954 134.004 185.842V182.809C133.998 182.745 133.977 182.683 133.942 182.63C133.907 182.576 133.859 182.533 133.803 182.503ZM133.847 185.6C133.847 185.715 133.755 185.762 133.64 185.705L130.966 184.351C130.908 184.32 130.859 184.275 130.823 184.22C130.787 184.165 130.765 184.102 130.759 184.036V181.328C130.759 181.212 130.852 181.165 130.966 181.223L133.64 182.577C133.698 182.608 133.747 182.652 133.783 182.707C133.82 182.762 133.842 182.826 133.847 182.891V185.6Z" fill="#5B677E"/>
<path d="M131.76 184.27L131.57 184.174V182.09L131.76 182.186V184.27Z" fill="#5B677E"/>
<path d="M131.666 181.866L131.408 182.258L131.666 182.389L131.924 182.519L131.666 181.866Z" fill="#5B677E"/>
<path d="M133.041 184.917L132.852 184.821V182.739L133.041 182.835V184.917Z" fill="#5B677E"/>
<path d="M132.945 182.515L132.688 182.907L132.945 183.038L133.203 183.168L132.945 182.515Z" fill="#5B677E"/>
<path d="M131.139 184.242V184.05L133.469 185.23V185.423L131.139 184.242Z" fill="#5B677E"/>
<path d="M137.835 184.546L134.84 183.03C134.729 182.976 134.639 183.019 134.639 183.132V186.165C134.644 186.229 134.665 186.29 134.701 186.344C134.736 186.397 134.784 186.441 134.84 186.471L137.835 187.988C137.947 188.042 138.036 187.998 138.036 187.886V184.852C138.03 184.788 138.009 184.727 137.974 184.673C137.939 184.62 137.891 184.576 137.835 184.546ZM137.879 187.644C137.879 187.759 137.786 187.806 137.672 187.749L134.998 186.395C134.94 186.364 134.891 186.319 134.854 186.264C134.818 186.209 134.796 186.146 134.791 186.08V183.372C134.791 183.256 134.883 183.21 134.998 183.267L137.672 184.621C137.729 184.652 137.779 184.697 137.815 184.752C137.851 184.807 137.873 184.87 137.879 184.936V187.644Z" fill="#5B677E"/>
<path d="M137.042 186.059C136.915 185.991 136.806 185.892 136.726 185.77C136.646 185.649 136.597 185.509 136.584 185.363V184.294L137.501 184.758V185.83C137.501 186.081 137.298 186.189 137.042 186.059Z" fill="#5B677E"/>
<path d="M137.095 187.163L136.988 187.108V185.987L137.095 186.041V187.163Z" fill="#5B677E"/>
<path d="M136.584 186.978C136.584 186.918 136.633 186.894 136.691 186.924L137.393 187.28C137.423 187.296 137.448 187.319 137.467 187.348C137.486 187.376 137.497 187.409 137.5 187.443L136.584 186.978Z" fill="#5B677E"/>
<path d="M135.17 183.574V184.648C135.183 184.794 135.231 184.934 135.311 185.055C135.392 185.177 135.5 185.276 135.628 185.344C135.882 185.473 136.087 185.369 136.087 185.113V184.04L135.17 183.574ZM135.992 185.064C135.992 185.267 135.832 185.35 135.628 185.248C135.527 185.194 135.44 185.115 135.377 185.018C135.313 184.922 135.274 184.81 135.264 184.695V183.72L135.992 184.088V185.064Z" fill="#5B677E"/>
<path d="M135.683 186.446L135.576 186.391V185.27L135.683 185.324V186.446Z" fill="#5B677E"/>
<path d="M135.17 186.263C135.17 186.202 135.219 186.178 135.277 186.208L135.979 186.564C136.009 186.58 136.034 186.603 136.053 186.632C136.072 186.66 136.083 186.693 136.086 186.727L135.17 186.263Z" fill="#5B677E"/>
<path d="M141.866 186.588L138.871 185.071C138.76 185.017 138.67 185.061 138.67 185.173V188.206C138.676 188.27 138.697 188.332 138.732 188.385C138.767 188.439 138.815 188.482 138.871 188.512L141.866 190.029C141.977 190.083 142.067 190.039 142.067 189.927V186.894C142.062 186.83 142.04 186.769 142.005 186.715C141.97 186.662 141.922 186.618 141.866 186.588ZM141.911 189.685C141.911 189.801 141.818 189.848 141.704 189.791L139.03 188.437C138.972 188.406 138.923 188.361 138.887 188.306C138.851 188.251 138.829 188.188 138.823 188.122V185.417C138.823 185.301 138.915 185.255 139.03 185.312L141.704 186.666C141.762 186.697 141.811 186.742 141.847 186.797C141.883 186.852 141.905 186.915 141.911 186.981V189.685Z" fill="#5B677E"/>
<path d="M139.757 187.176C139.811 187.16 139.868 187.156 139.924 187.163C139.98 187.17 140.034 187.189 140.082 187.218C140.211 187.287 140.322 187.385 140.407 187.505C140.461 187.49 140.518 187.485 140.574 187.492C140.63 187.499 140.684 187.518 140.732 187.547C140.861 187.616 140.972 187.714 141.057 187.833C141.112 187.818 141.168 187.814 141.224 187.821C141.28 187.828 141.334 187.847 141.382 187.876C141.41 187.89 141.436 187.905 141.462 187.922C141.415 187.608 141.297 187.309 141.116 187.05C140.935 186.79 140.696 186.578 140.419 186.429C139.873 186.152 139.425 186.348 139.377 186.862C139.396 186.869 139.415 186.878 139.434 186.887C139.562 186.957 139.673 187.055 139.757 187.176Z" fill="#5B677E"/>
<path d="M140.197 188.851C140.119 188.809 140.053 188.749 140.004 188.675C139.955 188.601 139.926 188.515 139.918 188.427V188.373C139.918 188.341 139.943 188.328 139.975 188.344C139.991 188.352 140.005 188.365 140.015 188.38C140.025 188.395 140.031 188.412 140.032 188.431V188.485C140.037 188.537 140.054 188.587 140.083 188.631C140.112 188.675 140.151 188.711 140.197 188.735C140.287 188.781 140.361 188.744 140.361 188.652V186.299C140.361 186.266 140.387 186.254 140.418 186.27C140.434 186.278 140.448 186.291 140.458 186.306C140.468 186.321 140.474 186.339 140.475 186.357V188.709C140.476 188.866 140.351 188.929 140.197 188.851Z" fill="#5B677E"/>
<path d="M157.863 157.388L150.777 160.976L150.557 160.865L157.643 157.277L157.863 157.388Z" fill="#5B677E"/>
<path d="M158.559 157.74L151.472 161.329L151.252 161.217L158.338 157.629L158.559 157.74Z" fill="#5B677E"/>
<path d="M159.254 158.092L152.168 161.681L151.947 161.569L159.034 157.981L159.254 158.092Z" fill="#5B677E"/>
<path d="M159.947 158.442L152.861 162.031L152.641 161.919L159.727 158.331L159.947 158.442Z" fill="#5B677E"/>
<path d="M159.078 173.548L151.992 177.136L151.771 177.024L158.858 173.436L159.078 173.548Z" fill="#5B677E"/>
<path d="M159.773 173.898L152.687 177.485L152.469 177.377L159.555 173.789L159.773 173.898Z" fill="#5B677E"/>
<path d="M160.469 174.25L153.382 177.838L153.162 177.727L160.248 174.139L160.469 174.25Z" fill="#5B677E"/>
<path d="M161.164 174.602L154.078 178.191L153.857 178.079L160.944 174.491L161.164 174.602Z" fill="#5B677E"/>
</g>
<defs>
<clipPath id="clip0">
<rect width="206" height="199" fill="white"/>
</clipPath>
</defs>
</svg>
