<?xml version="1.0" encoding="utf-8" standalone="no"?>
<!DOCTYPE svg PUBLIC "-//W3C//DTD SVG 1.1//EN"
  "http://www.w3.org/Graphics/SVG/1.1/DTD/svg11.dtd">
<svg xmlns:xlink="http://www.w3.org/1999/xlink" width="179.210703pt" height="170.754375pt" viewBox="0 0 179.210703 170.754375" xmlns="http://www.w3.org/2000/svg" version="1.1">
 <metadata>
  <rdf:RDF xmlns:dc="http://purl.org/dc/elements/1.1/" xmlns:cc="http://creativecommons.org/ns#" xmlns:rdf="http://www.w3.org/1999/02/22-rdf-syntax-ns#">
   <cc:Work>
    <dc:type rdf:resource="http://purl.org/dc/dcmitype/StillImage"/>
    <dc:date>2025-04-03T11:25:59.357811</dc:date>
    <dc:format>image/svg+xml</dc:format>
    <dc:creator>
     <cc:Agent>
      <dc:title>Matplotlib v3.10.1, https://matplotlib.org/</dc:title>
     </cc:Agent>
    </dc:creator>
   </cc:Work>
  </rdf:RDF>
 </metadata>
 <defs>
  <style type="text/css">*{stroke-linejoin: round; stroke-linecap: butt}</style>
 </defs>
 <g id="figure_1">
  <g id="patch_1">
   <path d="M 0 170.754375 
L 179.210703 170.754375 
L 179.210703 0 
L 0 0 
L 0 170.754375 
z
" style="fill: none"/>
  </g>
  <g id="axes_1">
   <g id="patch_2">
    <path d="M 50.14375 133.198125 
L 161.74375 133.198125 
L 161.74375 22.318125 
L 50.14375 22.318125 
L 50.14375 133.198125 
z
" style="fill: none"/>
   </g>
   <g id="PathCollection_1">
    <defs>
     <path id="m6b5e27fa3e" d="M 0 0.707107 
C 0.187527 0.707107 0.367398 0.632602 0.5 0.5 
C 0.632602 0.367398 0.707107 0.187527 0.707107 0 
C 0.707107 -0.187527 0.632602 -0.367398 0.5 -0.5 
C 0.367398 -0.632602 0.187527 -0.707107 0 -0.707107 
C -0.187527 -0.707107 -0.367398 -0.632602 -0.5 -0.5 
C -0.632602 -0.367398 -0.707107 -0.187527 -0.707107 0 
C -0.707107 0.187527 -0.632602 0.367398 -0.5 0.5 
C -0.367398 0.632602 -0.187527 0.707107 0 0.707107 
z
" style="stroke: #e80754"/>
    </defs>
    <g clip-path="url(#p1dcd737fe4)">
     <use xlink:href="#m6b5e27fa3e" x="86.376997" y="97.197939" style="fill: #e80754; stroke: #e80754"/>
     <use xlink:href="#m6b5e27fa3e" x="56.481537" y="126.900794" style="fill: #e80754; stroke: #e80754"/>
     <use xlink:href="#m6b5e27fa3e" x="105.770153" y="77.931089" style="fill: #e80754; stroke: #e80754"/>
     <use xlink:href="#m6b5e27fa3e" x="61.480412" y="121.933722" style="fill: #e80754; stroke: #e80754"/>
     <use xlink:href="#m6b5e27fa3e" x="71.298356" y="112.180232" style="fill: #e80754; stroke: #e80754"/>
     <use xlink:href="#m6b5e27fa3e" x="64.826572" y="118.608406" style="fill: #e80754; stroke: #e80754"/>
     <use xlink:href="#m6b5e27fa3e" x="83.843895" y="99.713875" style="fill: #e80754; stroke: #e80754"/>
     <use xlink:href="#m6b5e27fa3e" x="81.890444" y="101.656297" style="fill: #e80754; stroke: #e80754"/>
     <use xlink:href="#m6b5e27fa3e" x="68.570514" y="114.88794" style="fill: #e80754; stroke: #e80754"/>
     <use xlink:href="#m6b5e27fa3e" x="64.053896" y="119.376557" style="fill: #e80754; stroke: #e80754"/>
     <use xlink:href="#m6b5e27fa3e" x="60.308795" y="123.098996" style="fill: #e80754; stroke: #e80754"/>
     <use xlink:href="#m6b5e27fa3e" x="57.024539" y="126.362269" style="fill: #e80754; stroke: #e80754"/>
     <use xlink:href="#m6b5e27fa3e" x="83.853632" y="99.706144" style="fill: #e80754; stroke: #e80754"/>
     <use xlink:href="#m6b5e27fa3e" x="66.850303" y="116.598189" style="fill: #e80754; stroke: #e80754"/>
     <use xlink:href="#m6b5e27fa3e" x="56.481537" y="126.900794" style="fill: #e80754; stroke: #e80754"/>
     <use xlink:href="#m6b5e27fa3e" x="58.209052" y="125.18464" style="fill: #e80754; stroke: #e80754"/>
     <use xlink:href="#m6b5e27fa3e" x="95.909998" y="87.730899" style="fill: #e80754; stroke: #e80754"/>
     <use xlink:href="#m6b5e27fa3e" x="78.336566" y="105.185866" style="fill: #e80754; stroke: #e80754"/>
     <use xlink:href="#m6b5e27fa3e" x="101.536056" y="82.137681" style="fill: #e80754; stroke: #e80754"/>
     <use xlink:href="#m6b5e27fa3e" x="91.241565" y="92.365722" style="fill: #e80754; stroke: #e80754"/>
     <use xlink:href="#m6b5e27fa3e" x="112.14966" y="71.594359" style="fill: #e80754; stroke: #e80754"/>
     <use xlink:href="#m6b5e27fa3e" x="77.355732" y="106.163327" style="fill: #e80754; stroke: #e80754"/>
     <use xlink:href="#m6b5e27fa3e" x="63.109776" y="120.31428" style="fill: #e80754; stroke: #e80754"/>
     <use xlink:href="#m6b5e27fa3e" x="55.216477" y="128.156107" style="fill: #e80754; stroke: #e80754"/>
     <use xlink:href="#m6b5e27fa3e" x="78.605063" y="104.919555" style="fill: #e80754; stroke: #e80754"/>
     <use xlink:href="#m6b5e27fa3e" x="104.71616" y="78.981606" style="fill: #e80754; stroke: #e80754"/>
     <use xlink:href="#m6b5e27fa3e" x="90.664884" y="92.941171" style="fill: #e80754; stroke: #e80754"/>
     <use xlink:href="#m6b5e27fa3e" x="64.898097" y="118.539681" style="fill: #e80754; stroke: #e80754"/>
     <use xlink:href="#m6b5e27fa3e" x="78.507214" y="105.017932" style="fill: #e80754; stroke: #e80754"/>
     <use xlink:href="#m6b5e27fa3e" x="92.811468" y="90.808357" style="fill: #e80754; stroke: #e80754"/>
     <use xlink:href="#m6b5e27fa3e" x="82.385521" y="101.164833" style="fill: #e80754; stroke: #e80754"/>
     <use xlink:href="#m6b5e27fa3e" x="91.83066" y="91.78054" style="fill: #e80754; stroke: #e80754"/>
     <use xlink:href="#m6b5e27fa3e" x="93.925589" y="89.698864" style="fill: #e80754; stroke: #e80754"/>
     <use xlink:href="#m6b5e27fa3e" x="92.871629" y="90.74756" style="fill: #e80754; stroke: #e80754"/>
     <use xlink:href="#m6b5e27fa3e" x="63.26247" y="120.161016" style="fill: #e80754; stroke: #e80754"/>
     <use xlink:href="#m6b5e27fa3e" x="82.815396" y="100.736907" style="fill: #e80754; stroke: #e80754"/>
     <use xlink:href="#m6b5e27fa3e" x="82.122622" y="101.427763" style="fill: #e80754; stroke: #e80754"/>
     <use xlink:href="#m6b5e27fa3e" x="105.016052" y="78.682359" style="fill: #e80754; stroke: #e80754"/>
     <use xlink:href="#m6b5e27fa3e" x="101.463851" y="82.2109" style="fill: #e80754; stroke: #e80754"/>
     <use xlink:href="#m6b5e27fa3e" x="88.227501" y="95.35976" style="fill: #e80754; stroke: #e80754"/>
     <use xlink:href="#m6b5e27fa3e" x="106.513066" y="77.197473" style="fill: #e80754; stroke: #e80754"/>
     <use xlink:href="#m6b5e27fa3e" x="92.886393" y="90.736813" style="fill: #e80754; stroke: #e80754"/>
     <use xlink:href="#m6b5e27fa3e" x="95.940922" y="87.692921" style="fill: #e80754; stroke: #e80754"/>
     <use xlink:href="#m6b5e27fa3e" x="77.155615" y="106.357925" style="fill: #e80754; stroke: #e80754"/>
     <use xlink:href="#m6b5e27fa3e" x="72.996845" y="110.490476" style="fill: #e80754; stroke: #e80754"/>
     <use xlink:href="#m6b5e27fa3e" x="62.188769" y="121.229938" style="fill: #e80754; stroke: #e80754"/>
     <use xlink:href="#m6b5e27fa3e" x="84.412992" y="99.155591" style="fill: #e80754; stroke: #e80754"/>
     <use xlink:href="#m6b5e27fa3e" x="92.871629" y="90.74756" style="fill: #e80754; stroke: #e80754"/>
     <use xlink:href="#m6b5e27fa3e" x="78.818177" y="104.7076" style="fill: #e80754; stroke: #e80754"/>
     <use xlink:href="#m6b5e27fa3e" x="57.067119" y="126.31823" style="fill: #e80754; stroke: #e80754"/>
     <use xlink:href="#m6b5e27fa3e" x="73.272447" y="110.217678" style="fill: #e80754; stroke: #e80754"/>
     <use xlink:href="#m6b5e27fa3e" x="78.113034" y="105.408329" style="fill: #e80754; stroke: #e80754"/>
     <use xlink:href="#m6b5e27fa3e" x="88.997976" y="94.596036" style="fill: #e80754; stroke: #e80754"/>
     <use xlink:href="#m6b5e27fa3e" x="112.14966" y="71.594359" style="fill: #e80754; stroke: #e80754"/>
     <use xlink:href="#m6b5e27fa3e" x="61.480412" y="121.933722" style="fill: #e80754; stroke: #e80754"/>
     <use xlink:href="#m6b5e27fa3e" x="60.878445" y="122.531268" style="fill: #e80754; stroke: #e80754"/>
     <use xlink:href="#m6b5e27fa3e" x="95.658858" y="87.977606" style="fill: #e80754; stroke: #e80754"/>
     <use xlink:href="#m6b5e27fa3e" x="84.135237" y="99.431477" style="fill: #e80754; stroke: #e80754"/>
     <use xlink:href="#m6b5e27fa3e" x="62.168276" y="121.251557" style="fill: #e80754; stroke: #e80754"/>
     <use xlink:href="#m6b5e27fa3e" x="109.321307" y="74.407865" style="fill: #e80754; stroke: #e80754"/>
     <use xlink:href="#m6b5e27fa3e" x="61.760167" y="121.658162" style="fill: #e80754; stroke: #e80754"/>
     <use xlink:href="#m6b5e27fa3e" x="77.455223" y="106.057662" style="fill: #e80754; stroke: #e80754"/>
     <use xlink:href="#m6b5e27fa3e" x="126.703826" y="57.137576" style="fill: #e80754; stroke: #e80754"/>
     <use xlink:href="#m6b5e27fa3e" x="104.717903" y="78.976325" style="fill: #e80754; stroke: #e80754"/>
     <use xlink:href="#m6b5e27fa3e" x="79.681198" y="103.84805" style="fill: #e80754; stroke: #e80754"/>
     <use xlink:href="#m6b5e27fa3e" x="105.714502" y="77.990516" style="fill: #e80754; stroke: #e80754"/>
     <use xlink:href="#m6b5e27fa3e" x="90.851945" y="92.752759" style="fill: #e80754; stroke: #e80754"/>
     <use xlink:href="#m6b5e27fa3e" x="62.050841" y="121.367158" style="fill: #e80754; stroke: #e80754"/>
     <use xlink:href="#m6b5e27fa3e" x="55.603228" y="127.773465" style="fill: #e80754; stroke: #e80754"/>
     <use xlink:href="#m6b5e27fa3e" x="81.828569" y="101.716254" style="fill: #e80754; stroke: #e80754"/>
     <use xlink:href="#m6b5e27fa3e" x="56.481537" y="126.900794" style="fill: #e80754; stroke: #e80754"/>
     <use xlink:href="#m6b5e27fa3e" x="107.687338" y="76.031051" style="fill: #e80754; stroke: #e80754"/>
     <use xlink:href="#m6b5e27fa3e" x="88.434883" y="95.155087" style="fill: #e80754; stroke: #e80754"/>
     <use xlink:href="#m6b5e27fa3e" x="117.891053" y="65.892263" style="fill: #e80754; stroke: #e80754"/>
     <use xlink:href="#m6b5e27fa3e" x="62.65788" y="120.764213" style="fill: #e80754; stroke: #e80754"/>
     <use xlink:href="#m6b5e27fa3e" x="89.484265" y="94.111252" style="fill: #e80754; stroke: #e80754"/>
     <use xlink:href="#m6b5e27fa3e" x="80.360258" y="103.179781" style="fill: #e80754; stroke: #e80754"/>
     <use xlink:href="#m6b5e27fa3e" x="66.263007" y="117.183743" style="fill: #e80754; stroke: #e80754"/>
     <use xlink:href="#m6b5e27fa3e" x="77.774852" y="105.743952" style="fill: #e80754; stroke: #e80754"/>
     <use xlink:href="#m6b5e27fa3e" x="78.466584" y="105.059784" style="fill: #e80754; stroke: #e80754"/>
     <use xlink:href="#m6b5e27fa3e" x="83.772387" y="99.78499" style="fill: #e80754; stroke: #e80754"/>
     <use xlink:href="#m6b5e27fa3e" x="60.371155" y="123.036044" style="fill: #e80754; stroke: #e80754"/>
     <use xlink:href="#m6b5e27fa3e" x="112.402558" y="71.345095" style="fill: #e80754; stroke: #e80754"/>
     <use xlink:href="#m6b5e27fa3e" x="58.617369" y="124.78005" style="fill: #e80754; stroke: #e80754"/>
     <use xlink:href="#m6b5e27fa3e" x="97.835981" y="85.813089" style="fill: #e80754; stroke: #e80754"/>
     <use xlink:href="#m6b5e27fa3e" x="57.107428" y="126.277252" style="fill: #e80754; stroke: #e80754"/>
     <use xlink:href="#m6b5e27fa3e" x="101.463851" y="82.2109" style="fill: #e80754; stroke: #e80754"/>
     <use xlink:href="#m6b5e27fa3e" x="58.772263" y="124.623755" style="fill: #e80754; stroke: #e80754"/>
     <use xlink:href="#m6b5e27fa3e" x="85.315607" y="98.255072" style="fill: #e80754; stroke: #e80754"/>
     <use xlink:href="#m6b5e27fa3e" x="62.861483" y="120.564086" style="fill: #e80754; stroke: #e80754"/>
     <use xlink:href="#m6b5e27fa3e" x="81.202372" y="102.33631" style="fill: #e80754; stroke: #e80754"/>
     <use xlink:href="#m6b5e27fa3e" x="65.05966" y="118.376706" style="fill: #e80754; stroke: #e80754"/>
     <use xlink:href="#m6b5e27fa3e" x="101.453264" y="82.219922" style="fill: #e80754; stroke: #e80754"/>
     <use xlink:href="#m6b5e27fa3e" x="69.311146" y="114.152962" style="fill: #e80754; stroke: #e80754"/>
     <use xlink:href="#m6b5e27fa3e" x="105.770153" y="77.931089" style="fill: #e80754; stroke: #e80754"/>
     <use xlink:href="#m6b5e27fa3e" x="88.287483" y="95.301172" style="fill: #e80754; stroke: #e80754"/>
     <use xlink:href="#m6b5e27fa3e" x="59.496894" y="123.903808" style="fill: #e80754; stroke: #e80754"/>
     <use xlink:href="#m6b5e27fa3e" x="104.707386" y="78.990343" style="fill: #e80754; stroke: #e80754"/>
     <use xlink:href="#m6b5e27fa3e" x="101.153539" y="82.516783" style="fill: #e80754; stroke: #e80754"/>
     <use xlink:href="#m6b5e27fa3e" x="69.959759" y="113.507444" style="fill: #e80754; stroke: #e80754"/>
     <use xlink:href="#m6b5e27fa3e" x="66.304502" y="117.139051" style="fill: #e80754; stroke: #e80754"/>
     <use xlink:href="#m6b5e27fa3e" x="82.387567" y="101.16279" style="fill: #e80754; stroke: #e80754"/>
     <use xlink:href="#m6b5e27fa3e" x="101.125301" y="82.547496" style="fill: #e80754; stroke: #e80754"/>
     <use xlink:href="#m6b5e27fa3e" x="93.9987" y="89.626875" style="fill: #e80754; stroke: #e80754"/>
     <use xlink:href="#m6b5e27fa3e" x="65.060711" y="118.376007" style="fill: #e80754; stroke: #e80754"/>
     <use xlink:href="#m6b5e27fa3e" x="71.190529" y="112.28402" style="fill: #e80754; stroke: #e80754"/>
     <use xlink:href="#m6b5e27fa3e" x="88.63196" y="94.959533" style="fill: #e80754; stroke: #e80754"/>
     <use xlink:href="#m6b5e27fa3e" x="93.901925" y="89.722398" style="fill: #e80754; stroke: #e80754"/>
     <use xlink:href="#m6b5e27fa3e" x="93.778601" y="89.844092" style="fill: #e80754; stroke: #e80754"/>
     <use xlink:href="#m6b5e27fa3e" x="112.14966" y="71.594359" style="fill: #e80754; stroke: #e80754"/>
     <use xlink:href="#m6b5e27fa3e" x="63.149755" y="120.27096" style="fill: #e80754; stroke: #e80754"/>
     <use xlink:href="#m6b5e27fa3e" x="84.542172" y="99.021324" style="fill: #e80754; stroke: #e80754"/>
     <use xlink:href="#m6b5e27fa3e" x="90.97648" y="92.625854" style="fill: #e80754; stroke: #e80754"/>
     <use xlink:href="#m6b5e27fa3e" x="64.329103" y="119.100639" style="fill: #e80754; stroke: #e80754"/>
     <use xlink:href="#m6b5e27fa3e" x="59.164611" y="124.234308" style="fill: #e80754; stroke: #e80754"/>
     <use xlink:href="#m6b5e27fa3e" x="83.366997" y="100.189549" style="fill: #e80754; stroke: #e80754"/>
     <use xlink:href="#m6b5e27fa3e" x="74.160612" y="109.335832" style="fill: #e80754; stroke: #e80754"/>
     <use xlink:href="#m6b5e27fa3e" x="90.117462" y="93.483624" style="fill: #e80754; stroke: #e80754"/>
     <use xlink:href="#m6b5e27fa3e" x="95.658858" y="87.977606" style="fill: #e80754; stroke: #e80754"/>
     <use xlink:href="#m6b5e27fa3e" x="68.992829" y="114.471867" style="fill: #e80754; stroke: #e80754"/>
     <use xlink:href="#m6b5e27fa3e" x="156.671023" y="27.368157" style="fill: #e80754; stroke: #e80754"/>
     <use xlink:href="#m6b5e27fa3e" x="103.480966" y="80.205693" style="fill: #e80754; stroke: #e80754"/>
     <use xlink:href="#m6b5e27fa3e" x="60.632719" y="122.773486" style="fill: #e80754; stroke: #e80754"/>
     <use xlink:href="#m6b5e27fa3e" x="61.491162" y="121.919925" style="fill: #e80754; stroke: #e80754"/>
     <use xlink:href="#m6b5e27fa3e" x="65.05966" y="118.376706" style="fill: #e80754; stroke: #e80754"/>
     <use xlink:href="#m6b5e27fa3e" x="92.336704" y="91.275306" style="fill: #e80754; stroke: #e80754"/>
     <use xlink:href="#m6b5e27fa3e" x="59.597665" y="123.804783" style="fill: #e80754; stroke: #e80754"/>
     <use xlink:href="#m6b5e27fa3e" x="61.356697" y="122.055386" style="fill: #e80754; stroke: #e80754"/>
     <use xlink:href="#m6b5e27fa3e" x="90.852767" y="92.750833" style="fill: #e80754; stroke: #e80754"/>
     <use xlink:href="#m6b5e27fa3e" x="68.570514" y="114.88794" style="fill: #e80754; stroke: #e80754"/>
     <use xlink:href="#m6b5e27fa3e" x="88.227501" y="95.35976" style="fill: #e80754; stroke: #e80754"/>
     <use xlink:href="#m6b5e27fa3e" x="77.911773" y="105.604493" style="fill: #e80754; stroke: #e80754"/>
     <use xlink:href="#m6b5e27fa3e" x="100.189098" y="83.476409" style="fill: #e80754; stroke: #e80754"/>
     <use xlink:href="#m6b5e27fa3e" x="112.14966" y="71.594359" style="fill: #e80754; stroke: #e80754"/>
     <use xlink:href="#m6b5e27fa3e" x="90.117462" y="93.483624" style="fill: #e80754; stroke: #e80754"/>
     <use xlink:href="#m6b5e27fa3e" x="99.984935" y="83.678475" style="fill: #e80754; stroke: #e80754"/>
     <use xlink:href="#m6b5e27fa3e" x="90.852767" y="92.750833" style="fill: #e80754; stroke: #e80754"/>
    </g>
   </g>
   <g id="matplotlib.axis_1">
    <g id="xtick_1">
     <g id="line2d_1">
      <defs>
       <path id="ma9d8aeb91d" d="M 0 0 
L 0 3.5 
" style="stroke: #ffffff; stroke-width: 0.8"/>
      </defs>
      <g>
       <use xlink:href="#ma9d8aeb91d" x="80.815109" y="133.198125" style="fill: #ffffff; stroke: #ffffff; stroke-width: 0.8"/>
      </g>
     </g>
     <g id="text_1">
      <!-- 0.05 -->
      <g style="fill: #ffffff" transform="translate(69.682297 147.796563) scale(0.1 -0.1)">
       <defs>
        <path id="DejaVuSans-30" d="M 2034 4250 
Q 1547 4250 1301 3770 
Q 1056 3291 1056 2328 
Q 1056 1369 1301 889 
Q 1547 409 2034 409 
Q 2525 409 2770 889 
Q 3016 1369 3016 2328 
Q 3016 3291 2770 3770 
Q 2525 4250 2034 4250 
z
M 2034 4750 
Q 2819 4750 3233 4129 
Q 3647 3509 3647 2328 
Q 3647 1150 3233 529 
Q 2819 -91 2034 -91 
Q 1250 -91 836 529 
Q 422 1150 422 2328 
Q 422 3509 836 4129 
Q 1250 4750 2034 4750 
z
" transform="scale(0.015625)"/>
        <path id="DejaVuSans-2e" d="M 684 794 
L 1344 794 
L 1344 0 
L 684 0 
L 684 794 
z
" transform="scale(0.015625)"/>
        <path id="DejaVuSans-35" d="M 691 4666 
L 3169 4666 
L 3169 4134 
L 1269 4134 
L 1269 2991 
Q 1406 3038 1543 3061 
Q 1681 3084 1819 3084 
Q 2600 3084 3056 2656 
Q 3513 2228 3513 1497 
Q 3513 744 3044 326 
Q 2575 -91 1722 -91 
Q 1428 -91 1123 -41 
Q 819 9 494 109 
L 494 744 
Q 775 591 1075 516 
Q 1375 441 1709 441 
Q 2250 441 2565 725 
Q 2881 1009 2881 1497 
Q 2881 1984 2565 2268 
Q 2250 2553 1709 2553 
Q 1456 2553 1204 2497 
Q 953 2441 691 2322 
L 691 4666 
z
" transform="scale(0.015625)"/>
       </defs>
       <use xlink:href="#DejaVuSans-30"/>
       <use xlink:href="#DejaVuSans-2e" transform="translate(63.623047 0)"/>
       <use xlink:href="#DejaVuSans-30" transform="translate(95.410156 0)"/>
       <use xlink:href="#DejaVuSans-35" transform="translate(159.033203 0)"/>
      </g>
     </g>
    </g>
    <g id="xtick_2">
     <g id="line2d_2">
      <g>
       <use xlink:href="#ma9d8aeb91d" x="120.8465" y="133.198125" style="fill: #ffffff; stroke: #ffffff; stroke-width: 0.8"/>
      </g>
     </g>
     <g id="text_2">
      <!-- 0.10 -->
      <g style="fill: #ffffff" transform="translate(109.713688 147.796563) scale(0.1 -0.1)">
       <defs>
        <path id="DejaVuSans-31" d="M 794 531 
L 1825 531 
L 1825 4091 
L 703 3866 
L 703 4441 
L 1819 4666 
L 2450 4666 
L 2450 531 
L 3481 531 
L 3481 0 
L 794 0 
L 794 531 
z
" transform="scale(0.015625)"/>
       </defs>
       <use xlink:href="#DejaVuSans-30"/>
       <use xlink:href="#DejaVuSans-2e" transform="translate(63.623047 0)"/>
       <use xlink:href="#DejaVuSans-31" transform="translate(95.410156 0)"/>
       <use xlink:href="#DejaVuSans-30" transform="translate(159.033203 0)"/>
      </g>
     </g>
    </g>
    <g id="xtick_3">
     <g id="line2d_3">
      <g>
       <use xlink:href="#ma9d8aeb91d" x="160.877891" y="133.198125" style="fill: #ffffff; stroke: #ffffff; stroke-width: 0.8"/>
      </g>
     </g>
     <g id="text_3">
      <!-- 0.15 -->
      <g style="fill: #ffffff" transform="translate(149.745078 147.796563) scale(0.1 -0.1)">
       <use xlink:href="#DejaVuSans-30"/>
       <use xlink:href="#DejaVuSans-2e" transform="translate(63.623047 0)"/>
       <use xlink:href="#DejaVuSans-31" transform="translate(95.410156 0)"/>
       <use xlink:href="#DejaVuSans-35" transform="translate(159.033203 0)"/>
      </g>
     </g>
    </g>
    <g id="text_4">
     <!-- True output -->
     <g style="fill: #ffffff" transform="translate(77.246094 161.474688) scale(0.1 -0.1)">
      <defs>
       <path id="DejaVuSans-54" d="M -19 4666 
L 3928 4666 
L 3928 4134 
L 2272 4134 
L 2272 0 
L 1638 0 
L 1638 4134 
L -19 4134 
L -19 4666 
z
" transform="scale(0.015625)"/>
       <path id="DejaVuSans-72" d="M 2631 2963 
Q 2534 3019 2420 3045 
Q 2306 3072 2169 3072 
Q 1681 3072 1420 2755 
Q 1159 2438 1159 1844 
L 1159 0 
L 581 0 
L 581 3500 
L 1159 3500 
L 1159 2956 
Q 1341 3275 1631 3429 
Q 1922 3584 2338 3584 
Q 2397 3584 2469 3576 
Q 2541 3569 2628 3553 
L 2631 2963 
z
" transform="scale(0.015625)"/>
       <path id="DejaVuSans-75" d="M 544 1381 
L 544 3500 
L 1119 3500 
L 1119 1403 
Q 1119 906 1312 657 
Q 1506 409 1894 409 
Q 2359 409 2629 706 
Q 2900 1003 2900 1516 
L 2900 3500 
L 3475 3500 
L 3475 0 
L 2900 0 
L 2900 538 
Q 2691 219 2414 64 
Q 2138 -91 1772 -91 
Q 1169 -91 856 284 
Q 544 659 544 1381 
z
M 1991 3584 
L 1991 3584 
z
" transform="scale(0.015625)"/>
       <path id="DejaVuSans-65" d="M 3597 1894 
L 3597 1613 
L 953 1613 
Q 991 1019 1311 708 
Q 1631 397 2203 397 
Q 2534 397 2845 478 
Q 3156 559 3463 722 
L 3463 178 
Q 3153 47 2828 -22 
Q 2503 -91 2169 -91 
Q 1331 -91 842 396 
Q 353 884 353 1716 
Q 353 2575 817 3079 
Q 1281 3584 2069 3584 
Q 2775 3584 3186 3129 
Q 3597 2675 3597 1894 
z
M 3022 2063 
Q 3016 2534 2758 2815 
Q 2500 3097 2075 3097 
Q 1594 3097 1305 2825 
Q 1016 2553 972 2059 
L 3022 2063 
z
" transform="scale(0.015625)"/>
       <path id="DejaVuSans-20" transform="scale(0.015625)"/>
       <path id="DejaVuSans-6f" d="M 1959 3097 
Q 1497 3097 1228 2736 
Q 959 2375 959 1747 
Q 959 1119 1226 758 
Q 1494 397 1959 397 
Q 2419 397 2687 759 
Q 2956 1122 2956 1747 
Q 2956 2369 2687 2733 
Q 2419 3097 1959 3097 
z
M 1959 3584 
Q 2709 3584 3137 3096 
Q 3566 2609 3566 1747 
Q 3566 888 3137 398 
Q 2709 -91 1959 -91 
Q 1206 -91 779 398 
Q 353 888 353 1747 
Q 353 2609 779 3096 
Q 1206 3584 1959 3584 
z
" transform="scale(0.015625)"/>
       <path id="DejaVuSans-74" d="M 1172 4494 
L 1172 3500 
L 2356 3500 
L 2356 3053 
L 1172 3053 
L 1172 1153 
Q 1172 725 1289 603 
Q 1406 481 1766 481 
L 2356 481 
L 2356 0 
L 1766 0 
Q 1100 0 847 248 
Q 594 497 594 1153 
L 594 3053 
L 172 3053 
L 172 3500 
L 594 3500 
L 594 4494 
L 1172 4494 
z
" transform="scale(0.015625)"/>
       <path id="DejaVuSans-70" d="M 1159 525 
L 1159 -1331 
L 581 -1331 
L 581 3500 
L 1159 3500 
L 1159 2969 
Q 1341 3281 1617 3432 
Q 1894 3584 2278 3584 
Q 2916 3584 3314 3078 
Q 3713 2572 3713 1747 
Q 3713 922 3314 415 
Q 2916 -91 2278 -91 
Q 1894 -91 1617 61 
Q 1341 213 1159 525 
z
M 3116 1747 
Q 3116 2381 2855 2742 
Q 2594 3103 2138 3103 
Q 1681 3103 1420 2742 
Q 1159 2381 1159 1747 
Q 1159 1113 1420 752 
Q 1681 391 2138 391 
Q 2594 391 2855 752 
Q 3116 1113 3116 1747 
z
" transform="scale(0.015625)"/>
      </defs>
      <use xlink:href="#DejaVuSans-54"/>
      <use xlink:href="#DejaVuSans-72" transform="translate(46.333984 0)"/>
      <use xlink:href="#DejaVuSans-75" transform="translate(87.447266 0)"/>
      <use xlink:href="#DejaVuSans-65" transform="translate(150.826172 0)"/>
      <use xlink:href="#DejaVuSans-20" transform="translate(212.349609 0)"/>
      <use xlink:href="#DejaVuSans-6f" transform="translate(244.136719 0)"/>
      <use xlink:href="#DejaVuSans-75" transform="translate(305.318359 0)"/>
      <use xlink:href="#DejaVuSans-74" transform="translate(368.697266 0)"/>
      <use xlink:href="#DejaVuSans-70" transform="translate(407.90625 0)"/>
      <use xlink:href="#DejaVuSans-75" transform="translate(471.382812 0)"/>
      <use xlink:href="#DejaVuSans-74" transform="translate(534.761719 0)"/>
     </g>
    </g>
   </g>
   <g id="matplotlib.axis_2">
    <g id="ytick_1">
     <g id="line2d_4">
      <defs>
       <path id="me9c9b4cefd" d="M 0 0 
L -3.5 0 
" style="stroke: #ffffff; stroke-width: 0.8"/>
      </defs>
      <g>
       <use xlink:href="#me9c9b4cefd" x="50.14375" y="102.724645" style="fill: #ffffff; stroke: #ffffff; stroke-width: 0.8"/>
      </g>
     </g>
     <g id="text_5">
      <!-- 0.05 -->
      <g style="fill: #ffffff" transform="translate(20.878125 106.523864) scale(0.1 -0.1)">
       <use xlink:href="#DejaVuSans-30"/>
       <use xlink:href="#DejaVuSans-2e" transform="translate(63.623047 0)"/>
       <use xlink:href="#DejaVuSans-30" transform="translate(95.410156 0)"/>
       <use xlink:href="#DejaVuSans-35" transform="translate(159.033203 0)"/>
      </g>
     </g>
    </g>
    <g id="ytick_2">
     <g id="line2d_5">
      <g>
       <use xlink:href="#me9c9b4cefd" x="50.14375" y="62.951522" style="fill: #ffffff; stroke: #ffffff; stroke-width: 0.8"/>
      </g>
     </g>
     <g id="text_6">
      <!-- 0.10 -->
      <g style="fill: #ffffff" transform="translate(20.878125 66.75074) scale(0.1 -0.1)">
       <use xlink:href="#DejaVuSans-30"/>
       <use xlink:href="#DejaVuSans-2e" transform="translate(63.623047 0)"/>
       <use xlink:href="#DejaVuSans-31" transform="translate(95.410156 0)"/>
       <use xlink:href="#DejaVuSans-30" transform="translate(159.033203 0)"/>
      </g>
     </g>
    </g>
    <g id="ytick_3">
     <g id="line2d_6">
      <g>
       <use xlink:href="#me9c9b4cefd" x="50.14375" y="23.178398" style="fill: #ffffff; stroke: #ffffff; stroke-width: 0.8"/>
      </g>
     </g>
     <g id="text_7">
      <!-- 0.15 -->
      <g style="fill: #ffffff" transform="translate(20.878125 26.977617) scale(0.1 -0.1)">
       <use xlink:href="#DejaVuSans-30"/>
       <use xlink:href="#DejaVuSans-2e" transform="translate(63.623047 0)"/>
       <use xlink:href="#DejaVuSans-31" transform="translate(95.410156 0)"/>
       <use xlink:href="#DejaVuSans-35" transform="translate(159.033203 0)"/>
      </g>
     </g>
    </g>
    <g id="text_8">
     <!-- Predicted output -->
     <g style="fill: #ffffff" transform="translate(14.798437 119.308906) rotate(-90) scale(0.1 -0.1)">
      <defs>
       <path id="DejaVuSans-50" d="M 1259 4147 
L 1259 2394 
L 2053 2394 
Q 2494 2394 2734 2622 
Q 2975 2850 2975 3272 
Q 2975 3691 2734 3919 
Q 2494 4147 2053 4147 
L 1259 4147 
z
M 628 4666 
L 2053 4666 
Q 2838 4666 3239 4311 
Q 3641 3956 3641 3272 
Q 3641 2581 3239 2228 
Q 2838 1875 2053 1875 
L 1259 1875 
L 1259 0 
L 628 0 
L 628 4666 
z
" transform="scale(0.015625)"/>
       <path id="DejaVuSans-64" d="M 2906 2969 
L 2906 4863 
L 3481 4863 
L 3481 0 
L 2906 0 
L 2906 525 
Q 2725 213 2448 61 
Q 2172 -91 1784 -91 
Q 1150 -91 751 415 
Q 353 922 353 1747 
Q 353 2572 751 3078 
Q 1150 3584 1784 3584 
Q 2172 3584 2448 3432 
Q 2725 3281 2906 2969 
z
M 947 1747 
Q 947 1113 1208 752 
Q 1469 391 1925 391 
Q 2381 391 2643 752 
Q 2906 1113 2906 1747 
Q 2906 2381 2643 2742 
Q 2381 3103 1925 3103 
Q 1469 3103 1208 2742 
Q 947 2381 947 1747 
z
" transform="scale(0.015625)"/>
       <path id="DejaVuSans-69" d="M 603 3500 
L 1178 3500 
L 1178 0 
L 603 0 
L 603 3500 
z
M 603 4863 
L 1178 4863 
L 1178 4134 
L 603 4134 
L 603 4863 
z
" transform="scale(0.015625)"/>
       <path id="DejaVuSans-63" d="M 3122 3366 
L 3122 2828 
Q 2878 2963 2633 3030 
Q 2388 3097 2138 3097 
Q 1578 3097 1268 2742 
Q 959 2388 959 1747 
Q 959 1106 1268 751 
Q 1578 397 2138 397 
Q 2388 397 2633 464 
Q 2878 531 3122 666 
L 3122 134 
Q 2881 22 2623 -34 
Q 2366 -91 2075 -91 
Q 1284 -91 818 406 
Q 353 903 353 1747 
Q 353 2603 823 3093 
Q 1294 3584 2113 3584 
Q 2378 3584 2631 3529 
Q 2884 3475 3122 3366 
z
" transform="scale(0.015625)"/>
      </defs>
      <use xlink:href="#DejaVuSans-50"/>
      <use xlink:href="#DejaVuSans-72" transform="translate(58.552734 0)"/>
      <use xlink:href="#DejaVuSans-65" transform="translate(97.416016 0)"/>
      <use xlink:href="#DejaVuSans-64" transform="translate(158.939453 0)"/>
      <use xlink:href="#DejaVuSans-69" transform="translate(222.416016 0)"/>
      <use xlink:href="#DejaVuSans-63" transform="translate(250.199219 0)"/>
      <use xlink:href="#DejaVuSans-74" transform="translate(305.179688 0)"/>
      <use xlink:href="#DejaVuSans-65" transform="translate(344.388672 0)"/>
      <use xlink:href="#DejaVuSans-64" transform="translate(405.912109 0)"/>
      <use xlink:href="#DejaVuSans-20" transform="translate(469.388672 0)"/>
      <use xlink:href="#DejaVuSans-6f" transform="translate(501.175781 0)"/>
      <use xlink:href="#DejaVuSans-75" transform="translate(562.357422 0)"/>
      <use xlink:href="#DejaVuSans-74" transform="translate(625.736328 0)"/>
      <use xlink:href="#DejaVuSans-70" transform="translate(664.945312 0)"/>
      <use xlink:href="#DejaVuSans-75" transform="translate(728.421875 0)"/>
      <use xlink:href="#DejaVuSans-74" transform="translate(791.800781 0)"/>
     </g>
    </g>
   </g>
   <g id="line2d_7">
    <path d="M 55.216477 128.158125 
L 156.671023 27.358125 
" clip-path="url(#p1dcd737fe4)" style="fill: none; stroke-dasharray: 1.5,2.475; stroke-dashoffset: 0; stroke: #ffffff; stroke-width: 1.5"/>
   </g>
   <g id="patch_3">
    <path d="M 50.14375 133.198125 
L 50.14375 22.318125 
" style="fill: none; stroke: #ffffff; stroke-width: 0.8; stroke-linejoin: miter; stroke-linecap: square"/>
   </g>
   <g id="patch_4">
    <path d="M 161.74375 133.198125 
L 161.74375 22.318125 
" style="fill: none; stroke: #ffffff; stroke-width: 0.8; stroke-linejoin: miter; stroke-linecap: square"/>
   </g>
   <g id="patch_5">
    <path d="M 50.14375 133.198125 
L 161.74375 133.198125 
" style="fill: none; stroke: #ffffff; stroke-width: 0.8; stroke-linejoin: miter; stroke-linecap: square"/>
   </g>
   <g id="patch_6">
    <path d="M 50.14375 22.318125 
L 161.74375 22.318125 
" style="fill: none; stroke: #ffffff; stroke-width: 0.8; stroke-linejoin: miter; stroke-linecap: square"/>
   </g>
   <g id="text_9">
    <!-- cost -->
    <g style="fill: #ffffff" transform="translate(93.495625 16.318125) scale(0.12 -0.12)">
     <defs>
      <path id="DejaVuSans-73" d="M 2834 3397 
L 2834 2853 
Q 2591 2978 2328 3040 
Q 2066 3103 1784 3103 
Q 1356 3103 1142 2972 
Q 928 2841 928 2578 
Q 928 2378 1081 2264 
Q 1234 2150 1697 2047 
L 1894 2003 
Q 2506 1872 2764 1633 
Q 3022 1394 3022 966 
Q 3022 478 2636 193 
Q 2250 -91 1575 -91 
Q 1294 -91 989 -36 
Q 684 19 347 128 
L 347 722 
Q 666 556 975 473 
Q 1284 391 1588 391 
Q 1994 391 2212 530 
Q 2431 669 2431 922 
Q 2431 1156 2273 1281 
Q 2116 1406 1581 1522 
L 1381 1569 
Q 847 1681 609 1914 
Q 372 2147 372 2553 
Q 372 3047 722 3315 
Q 1072 3584 1716 3584 
Q 2034 3584 2315 3537 
Q 2597 3491 2834 3397 
z
" transform="scale(0.015625)"/>
     </defs>
     <use xlink:href="#DejaVuSans-63"/>
     <use xlink:href="#DejaVuSans-6f" transform="translate(54.980469 0)"/>
     <use xlink:href="#DejaVuSans-73" transform="translate(116.162109 0)"/>
     <use xlink:href="#DejaVuSans-74" transform="translate(168.261719 0)"/>
    </g>
   </g>
  </g>
 </g>
 <defs>
  <clipPath id="p1dcd737fe4">
   <rect x="50.14375" y="22.318125" width="111.6" height="110.88"/>
  </clipPath>
 </defs>
</svg>
