<?xml version="1.0" encoding="UTF-8"?>
<!-- Created with Inkscape (http://www.inkscape.org/) -->
<svg id="svg1" width="97.983mm" height="64.821mm" version="1.1" viewBox="0 0 97.983 64.821" xmlns="http://www.w3.org/2000/svg" xmlns:xlink="http://www.w3.org/1999/xlink">
 <defs id="defs1">
  <linearGradient id="swatch6">
   <stop id="stop6" stop-color="#97c1fb" offset="0"/>
  </linearGradient>
  <linearGradient id="swatch5">
   <stop id="stop5" stop-color="#063a82" offset="0"/>
  </linearGradient>
  <linearGradient id="swatch4">
   <stop id="stop4" stop-color="#1d79f6" offset="0"/>
  </linearGradient>
  <linearGradient id="linearGradient10" x1="142.42" x2="186.66" y1="94.151" y2="94.151" gradientTransform="translate(-4.421e-5 -2.5296e-5)" gradientUnits="userSpaceOnUse" xlink:href="#swatch5"/>
  <linearGradient id="linearGradient11" x1="147.22" x2="181.87" y1="94.151" y2="94.151" gradientTransform="translate(-4.421e-5 -2.5296e-5)" gradientUnits="userSpaceOnUse" xlink:href="#swatch4"/>
  <linearGradient id="linearGradient12" x1="150.71" x2="178.38" y1="94.151" y2="94.151" gradientTransform="translate(-4.421e-5 -2.5296e-5)" gradientUnits="userSpaceOnUse" xlink:href="#swatch6"/>
  <linearGradient id="linearGradient70" x1="47.229" x2="108.66" y1="95.16" y2="95.16" gradientUnits="userSpaceOnUse">
   <stop id="stop70" stop-color="#00062c" offset="0"/>
  </linearGradient>
 </defs>
 <g id="layer1" transform="translate(-47.229 -61.285)">
  <path id="path1" d="m77.787 64.617a30.311 30.543 0 0 0-30.155 30.648 30.311 30.543 0 0 0 30.363 30.438 30.311 30.543 0 0 0 30.259-30.543l-1e-3 -0.1602h-13.352v-25.095a30.311 30.543 0 0 0-17.114-5.288z" fill="url(#linearGradient70)" stroke="#fff" stroke-linejoin="round" stroke-width=".80504"/>
  <g id="g19" transform="matrix(-.5 -.86603 -.86603 .5 243.92 213.95)" display="none">
   <path id="path17" d="m164.43 71.714c-11.881 6.9304-11.797 18.107 0.18695 24.979 11.971 6.8624 31.299 6.843 43.226-0.04334l-43.294-24.996c-0.0397 0.02004-0.0793 0.04014-0.11883 0.06029z" fill="url(#linearGradient10)"/>
   <path id="path18" d="m168.79 74.201c-9.5046 5.5444-9.4373 14.486 0.1504 19.983 9.5764 5.4897 25.039 5.4743 34.58-0.03461l-34.636-19.997c-0.0318 0.01606-0.0635 0.03217-0.0951 0.04832z" fill="url(#linearGradient11)"/>
   <path id="path19" d="m172.28 76.2c-7.5949 4.4301-7.5414 11.575 0.11959 15.967 7.652 4.3868 20.007 4.3744 27.632-0.02763l-27.675-15.978c-0.0254 0.01278-0.0507 0.0256-0.076 0.03845z" fill="url(#linearGradient12)"/>
  </g>
  <g id="g34" transform="matrix(1 0 0 -1 -108.16 179.2)" display="none">
   <path id="path32" d="m164.43 71.714c-11.881 6.9304-11.797 18.107 0.18695 24.979 11.971 6.8624 31.299 6.843 43.226-0.04334l-43.294-24.996c-0.0397 0.02004-0.0793 0.04014-0.11883 0.06029z" fill="url(#linearGradient10)"/>
   <path id="path33" d="m168.79 74.201c-9.5046 5.5444-9.4373 14.486 0.1504 19.983 9.5764 5.4897 25.039 5.4743 34.58-0.03461l-34.636-19.997c-0.0318 0.01606-0.0635 0.03217-0.0951 0.04832z" fill="url(#linearGradient11)"/>
   <path id="path34" d="m172.28 76.2c-7.5949 4.4301-7.5414 11.575 0.11959 15.967 7.652 4.3868 20.007 4.3744 27.632-0.02763l-27.675-15.978c-0.0254 0.01278-0.0507 0.0256-0.076 0.03845z" fill="url(#linearGradient12)"/>
  </g>
  <g id="g46" transform="rotate(120 128.94 58.407)" fill="none" stroke="#fff" stroke-width=".5" style="mix-blend-mode:normal;paint-order:markers fill stroke">
   <path id="path44" d="m164.43 71.714c-11.881 6.9304-11.797 18.107 0.18695 24.979 11.971 6.8624 31.299 6.843 43.226-0.04334l-43.294-24.996c-0.0397 0.02004-0.0793 0.04014-0.11883 0.06029z" fill="none" stroke="#fff" stroke-linejoin="round" stroke-width=".5" style="paint-order:markers fill stroke"/>
  </g>
  <g id="g49" transform="matrix(-1 0 0 1 264.14 10.848)" fill="none" stroke="#fff" stroke-width=".5" style="mix-blend-mode:normal">
   <path id="path47" d="m164.43 71.714c-11.881 6.9304-11.797 18.107 0.18695 24.979 11.971 6.8624 31.299 6.843 43.226-0.04334l-43.294-24.996c-0.0397 0.02004-0.0793 0.04014-0.11883 0.06029z" fill="none" stroke="#fff" stroke-linejoin="round" stroke-width=".5"/>
  </g>
  <g id="g9" transform="matrix(-1 0 0 1 264.14 10.848)">
   <path id="path7" d="m164.43 71.714c-11.881 6.9304-11.797 18.107 0.18695 24.979 11.971 6.8624 31.299 6.843 43.226-0.04334l-43.294-24.996c-0.0397 0.02004-0.0793 0.04014-0.11883 0.06029z" fill="url(#linearGradient10)"/>
   <path id="path8" d="m168.79 74.201c-9.5046 5.5444-9.4373 14.486 0.1504 19.983 9.5764 5.4897 25.039 5.4743 34.58-0.03461l-34.636-19.997c-0.0318 0.01606-0.0635 0.03217-0.0951 0.04832z" fill="url(#linearGradient11)"/>
   <path id="path9" d="m172.28 76.2c-7.5949 4.4301-7.5414 11.575 0.11959 15.967 7.652 4.3868 20.007 4.3744 27.632-0.02763l-27.675-15.978c-0.0254 0.01278-0.0507 0.0256-0.076 0.03845z" fill="url(#linearGradient12)"/>
  </g>
  <g id="g14" transform="rotate(120 128.94 58.407)">
   <path id="path12" d="m164.43 71.714c-11.881 6.9304-11.797 18.107 0.18695 24.979 11.971 6.8624 31.299 6.843 43.226-0.04334l-43.294-24.996c-0.0397 0.02004-0.0793 0.04014-0.11883 0.06029z" fill="url(#linearGradient10)"/>
   <path id="path13" d="m168.79 74.201c-9.5046 5.5444-9.4373 14.486 0.1504 19.983 9.5764 5.4897 25.039 5.4743 34.58-0.03461l-34.636-19.997c-0.0318 0.01606-0.0635 0.03217-0.0951 0.04832z" fill="url(#linearGradient11)"/>
   <path id="path14" d="m172.28 76.2c-7.5949 4.4301-7.5414 11.575 0.11959 15.967 7.652 4.3868 20.007 4.3744 27.632-0.02763l-27.675-15.978c-0.0254 0.01278-0.0507 0.0256-0.076 0.03845z" fill="url(#linearGradient12)"/>
  </g>
  <g id="g40" transform="rotate(120 128.94 58.407)" fill="#131b45" opacity=".254" style="mix-blend-mode:multiply">
   <path id="path38" d="m164.43 71.714c-11.881 6.9304-11.797 18.107 0.18695 24.979 11.971 6.8624 31.299 6.843 43.226-0.04334l-43.294-24.996c-0.0397 0.02004-0.0793 0.04014-0.11883 0.06029z"/>
   <path id="path39" d="m168.79 74.201c-9.5046 5.5444-9.4373 14.486 0.1504 19.983 9.5764 5.4897 25.039 5.4743 34.58-0.03461l-34.636-19.997c-0.0318 0.01606-0.0635 0.03217-0.0951 0.04832z"/>
   <path id="path40" d="m172.28 76.2c-7.5949 4.4301-7.5414 11.575 0.11959 15.967 7.652 4.3868 20.007 4.3744 27.632-0.02763l-27.675-15.978c-0.0254 0.01278-0.0507 0.0256-0.076 0.03845z"/>
  </g>
  <g id="g43" transform="matrix(-1 0 0 1 264.14 10.848)" fill="#ffffc8" opacity=".527" style="mix-blend-mode:overlay">
   <path id="path41" d="m164.43 71.714c-11.881 6.9304-11.797 18.107 0.18695 24.979 11.971 6.8624 31.299 6.843 43.226-0.04334l-43.294-24.996c-0.0397 0.02004-0.0793 0.04014-0.11883 0.06029z"/>
   <path id="path42" d="m168.79 74.201c-9.5046 5.5444-9.4373 14.486 0.1504 19.983 9.5764 5.4897 25.039 5.4743 34.58-0.03461l-34.636-19.997c-0.0318 0.01606-0.0635 0.03217-0.0951 0.04832z"/>
   <path id="path43" d="m172.28 76.2c-7.5949 4.4301-7.5414 11.575 0.11959 15.967 7.652 4.3868 20.007 4.3744 27.632-0.02763l-27.675-15.978c-0.0254 0.01278-0.0507 0.0256-0.076 0.03845z"/>
  </g>
 </g>
 <g>
  <path id="path60" d="m36.717 20.033c-1.1321 0.01624-2.4025 0.38932-3.746 1.157-4.777 2.7297-8.6716 9.4218-8.7044 14.957l-5.1e-4 0.06873c0 0.41402 0.0248 0.80699 0.0672 1.1834l17.187-9.9229c0.0412-0.41352 0.0649-0.82327 0.0661-1.2263 0.0118-3.9715-1.9764-6.2582-4.8695-6.2167zm7.5791 15.869a9.8966 9.8966 0 0 0 0.97023-10.379 9.8966 9.8966 0 0 0-8.8614-5.4901v9.8966zm-2.7238-8.4556-17.291 9.9829c0.16442 0.10631 0.33362 0.21088 0.51108 0.31264 4.7935 2.7486 12.536 2.737 17.305-0.02584 4.769-2.7628 4.7621-7.233-0.015-9.9911l-0.0594-0.03411c-0.14757-0.08404-0.2982-0.16559-0.45113-0.24443z" fill="#e80754" style="paint-order:markers fill stroke"/>
  <path id="path70" d="m33.773 24.707c-0.86432 0.01233-1.8343 0.29724-2.8601 0.88338-3.6472 2.0841-6.6207 7.1934-6.6457 11.419l-3.89e-4 0.05247c0 0.3161 0.01894 0.61613 0.05131 0.90351l13.122-7.576c0.03146-0.31572 0.04955-0.62856 0.05047-0.93625 0.0091-3.0322-1.509-4.7781-3.7178-4.7464zm5.7865 12.116a7.5559 7.5559 0 0 0 0.74076-7.9243 7.5559 7.5559 0 0 0-6.7656-4.1916v7.5559zm-2.0796-6.4558-13.201 7.6218c0.12553 0.08116 0.25472 0.16101 0.3902 0.2387 3.6598 2.0985 9.5715 2.0896 13.213-0.01967 3.6411-2.1094 3.6358-5.5224-0.0114-7.6281l-0.04535-0.02604c-0.11266-0.06416-0.22767-0.12643-0.34443-0.18662z" fill="#c30744" opacity=".8" style="paint-order:markers fill stroke"/>
  <circle id="path69" cx="33.583" cy="25.725" r="1.2949" fill="#fff" opacity=".5" style="mix-blend-mode:lighten;paint-order:markers fill stroke"/>
 </g>
 <path id="text1" d="m59.048 11.369q0.51506 0 0.96661 0.19756 0.45156 0.19756 0.79022 0.55033 0.33867 0.34572 0.53622 0.81139 0.19756 0.45861 0.19756 0.98778t-0.19756 0.99483q-0.19756 0.46567-0.53622 0.81139-0.33867 0.34572-0.79022 0.55033-0.45156 0.19756-0.97367 0.19756-0.51506 0-0.97367-0.19756-0.45156-0.20461-0.79022-0.55033-0.33161-0.34572-0.52917-0.81139t-0.19756-0.99483 0.19756-0.98778q0.19756-0.46567 0.52917-0.81139 0.33867-0.35278 0.79022-0.55033 0.45861-0.19756 0.98072-0.19756zm-0.0071 0.70556q-0.36689 0-0.69144 0.14817-0.32456 0.14111-0.5715 0.39511-0.23989 0.24694-0.381 0.58561-0.13406 0.33161-0.13406 0.71261t0.13406 0.71967q0.14111 0.33161 0.381 0.58561 0.24694 0.24694 0.5715 0.39511 0.32456 0.14111 0.69144 0.14111 0.37394 0 0.6985-0.14111 0.32456-0.14817 0.56444-0.39511 0.24694-0.254 0.38806-0.58561 0.14111-0.33867 0.14111-0.71967t-0.14111-0.71261q-0.14111-0.33867-0.38806-0.58561-0.23989-0.254-0.56444-0.39511-0.32456-0.14817-0.6985-0.14817zm5.0668 0.64911q0.37394 0 0.70556 0.14817 0.33867 0.14817 0.58561 0.40217t0.38806 0.59972q0.14817 0.33867 0.14817 0.72672t-0.14817 0.72672q-0.14111 0.33867-0.38806 0.59267t-0.58561 0.40217q-0.33161 0.14817-0.70556 0.14817-0.37394 0-0.69144-0.14111-0.3175-0.14111-0.55033-0.381v2.1167h-0.71261v-5.2564h0.71261v0.43744q0.23283-0.23989 0.55033-0.381 0.3175-0.14111 0.69144-0.14111zm0 3.0409q0.22578 0 0.43039-0.09172 0.20461-0.09172 0.35278-0.24694 0.15522-0.16228 0.23989-0.37394 0.09172-0.21167 0.09172-0.45156 0-0.24694-0.09172-0.45156-0.08467-0.21167-0.23283-0.37394-0.14817-0.16228-0.35278-0.254-0.20461-0.09172-0.43744-0.09172-0.23283 0-0.4445 0.09172-0.20461 0.09172-0.35983 0.254-0.14817 0.15522-0.23989 0.36689-0.08467 0.21167-0.08467 0.45861 0 0.23989 0.08467 0.45156 0.09172 0.21167 0.23989 0.37394 0.15522 0.15522 0.35983 0.24694 0.21167 0.09172 0.4445 0.09172zm3.2747-0.53622q0 0.16933 0.04233 0.26811 0.04233 0.09878 0.11289 0.14111 0.07761 0.04233 0.1905 0.04939 0.11289 0.0071 0.24694 0.0071h0.24694v0.69144h-0.35983q-0.26811 0-0.48683-0.04233-0.21167-0.04233-0.37394-0.14111-0.15522-0.10583-0.24694-0.28222-0.08467-0.17639-0.08467-0.43039v-2.032h-0.4445v-0.71261h0.4445v-0.84672l0.71261-0.19756v1.0442h0.57856v0.71261h-0.57856zm1.8565-3.8382q0.19756 0 0.33867 0.14817 0.14817 0.14111 0.14817 0.33867 0 0.20461-0.14817 0.34572-0.14111 0.14111-0.33867 0.14111-0.21167 0-0.35278-0.14111-0.14111-0.14111-0.14111-0.34572 0-0.19756 0.14111-0.33867 0.14111-0.14817 0.35278-0.14817zm-0.35983 1.4323h0.71261v3.5631h-0.71261zm6.1039-0.09878q0.33161 0 0.62089 0.11994 0.29633 0.11289 0.508 0.32456 0.21167 0.20461 0.33161 0.48683 0.11994 0.27517 0.11994 0.59972v2.1308h-0.70556v-1.8909q0-0.26106-0.09172-0.45861-0.08467-0.19756-0.22578-0.33161-0.14111-0.13406-0.32456-0.20461-0.17639-0.07056-0.35983-0.07056-0.21872 0-0.40217 0.08467-0.17639 0.08467-0.3175 0.23283-0.13406 0.14111-0.21167 0.35278-0.07056 0.20461-0.07056 0.45861v1.8274h-0.71261v-1.8909q0-0.26106-0.08467-0.45861-0.08467-0.19756-0.22578-0.33161-0.14111-0.13406-0.32456-0.20461-0.17639-0.07056-0.36689-0.07056-0.21167 0-0.39511 0.08467-0.18344 0.08467-0.3175 0.23989-0.13406 0.14817-0.21167 0.35278-0.07056 0.20461-0.07056 0.45861v1.8203h-0.71261v-3.5701h0.71261v0.43039q0.09172-0.13406 0.21872-0.22578 0.13406-0.09878 0.28222-0.16228 0.14817-0.07056 0.30339-0.09878 0.16228-0.03528 0.3175-0.03528 0.22578 0 0.43039 0.05645 0.20461 0.04939 0.381 0.14817 0.17639 0.09172 0.3175 0.22578 0.14111 0.13406 0.24694 0.30339 0.09878-0.18344 0.24694-0.3175 0.14817-0.14111 0.32456-0.22578 0.18344-0.09172 0.37394-0.14111 0.19756-0.04939 0.39511-0.04939zm2.7596-1.3335q0.19756 0 0.33867 0.14817 0.14817 0.14111 0.14817 0.33867 0 0.20461-0.14817 0.34572-0.14111 0.14111-0.33867 0.14111-0.21167 0-0.35278-0.14111-0.14111-0.14111-0.14111-0.34572 0-0.19756 0.14111-0.33867 0.14111-0.14817 0.35278-0.14817zm-0.35983 1.4323h0.71261v3.5631h-0.71261zm4.5729-0.0071v0.41628l-2.1731 2.4412h2.1802v0.71261h-3.2173v-0.41628l2.1802-2.4412h-2.1378v-0.71261zm3.451-0.0071h0.71261v3.5772h-0.71261v-0.4445q-0.23283 0.24694-0.55033 0.38806-0.3175 0.14111-0.69144 0.14111-0.37394 0-0.71261-0.14817-0.33161-0.14817-0.57856-0.40217-0.24694-0.254-0.39511-0.59267-0.14111-0.34572-0.14111-0.73378 0-0.38806 0.14111-0.72672 0.14817-0.33867 0.39511-0.59267 0.24694-0.254 0.57856-0.40217 0.33867-0.14817 0.71261-0.14817 0.37394 0 0.69144 0.14111 0.3175 0.14111 0.55033 0.38806zm-1.2418 2.9563q0.23283 0 0.43744-0.09172 0.20461-0.09172 0.35278-0.24694 0.15522-0.16228 0.23989-0.37394 0.09172-0.21167 0.09172-0.45861 0-0.23989-0.09172-0.45156-0.08467-0.21167-0.23989-0.36689-0.14817-0.16228-0.35278-0.254-0.20461-0.09172-0.43744-0.09172-0.23283 0-0.43744 0.09172-0.19756 0.09172-0.35278 0.254-0.15522 0.15522-0.24694 0.36689-0.08467 0.21167-0.08467 0.45156 0 0.24694 0.08467 0.45861 0.09172 0.21167 0.24694 0.37394 0.15522 0.15522 0.35278 0.24694 0.20461 0.09172 0.43744 0.09172zm3.5639-0.53622q0 0.16933 0.04233 0.26811 0.04233 0.09878 0.11289 0.14111 0.07761 0.04233 0.1905 0.04939 0.11289 0.0071 0.24694 0.0071h0.24694v0.69144h-0.35983q-0.26811 0-0.48683-0.04233-0.21167-0.04233-0.37394-0.14111-0.15522-0.10583-0.24694-0.28222-0.08467-0.17639-0.08467-0.43039v-2.032h-0.4445v-0.71261h0.4445v-0.84662l0.71261-0.19756v1.0442h0.57856v0.71261h-0.57856zm1.8565-3.8382q0.19756 0 0.33867 0.14817 0.14817 0.14111 0.14817 0.33867 0 0.20461-0.14817 0.34572-0.14111 0.14111-0.33867 0.14111-0.21167 0-0.35278-0.14111-0.14111-0.14111-0.14111-0.34572 0-0.19756 0.14111-0.33867 0.14111-0.14817 0.35278-0.14817zm-0.35983 1.4323h0.71261v3.5631h-0.71261zm3.1053-0.09878q0.381 0 0.71261 0.14817 0.33867 0.14817 0.58561 0.40217 0.24694 0.254 0.38806 0.59972 0.14817 0.33867 0.14817 0.72672t-0.14817 0.72672q-0.14111 0.33867-0.38806 0.59267-0.24694 0.254-0.58561 0.40217-0.33161 0.14817-0.70556 0.14817-0.381 0-0.71967-0.14817-0.33161-0.14817-0.57856-0.40217t-0.39511-0.59267q-0.14111-0.33867-0.14111-0.72672t0.14111-0.72672q0.14817-0.34572 0.39511-0.59972t0.57856-0.40217q0.33867-0.14817 0.71261-0.14817zm0 0.70556q-0.23283 0-0.43744 0.09172-0.19756 0.09172-0.35278 0.254-0.15522 0.15522-0.24694 0.36689-0.08467 0.21167-0.08467 0.45861 0 0.23989 0.08467 0.45156 0.09172 0.21167 0.24694 0.37394 0.15522 0.15522 0.35278 0.24694 0.20461 0.09172 0.43744 0.09172 0.23283 0 0.43744-0.09172 0.21167-0.09172 0.35983-0.24694 0.15522-0.16228 0.23989-0.37394 0.09172-0.21167 0.09172-0.45156 0-0.24694-0.09172-0.45861-0.08467-0.21167-0.23989-0.36689-0.14817-0.16228-0.35983-0.254-0.20461-0.09172-0.43744-0.09172zm4.0649-0.70556q0.33867 0 0.62794 0.11994 0.28928 0.11289 0.50094 0.3175 0.21167 0.19756 0.33161 0.47272 0.127 0.27517 0.127 0.59972v2.1519h-0.71261v-1.8909q0-0.26106-0.07055-0.45861-0.07056-0.19756-0.20461-0.33161-0.127-0.13406-0.31044-0.20461-0.17639-0.07056-0.37394-0.07056-0.26106 0-0.45156 0.08467-0.1905 0.08467-0.32456 0.23989-0.127 0.14817-0.19756 0.35278-0.0635 0.20461-0.0635 0.45861v1.8203h-0.71261v-3.5701h0.71261v0.43039q0.09172-0.13406 0.21872-0.22578 0.13406-0.09878 0.28222-0.16228 0.14817-0.07056 0.30339-0.09878 0.16228-0.03528 0.3175-0.03528z" fill="#e80754" stroke-linejoin="round" stroke-width=".939" aria-label="Optimization"/>
 <path id="path2" d="m43.704 31.215 30.311-10.064v-2.4359" fill="none" stroke="#e80754" stroke-linejoin="round" stroke-width=".3"/>
 <path id="text1-5" d="m7.3046 0.80371 3.8907 10.823h-1.652l-1.1579-3.2268h-4.3693l-1.1579 3.2268h-1.652l3.8907-10.823zm-2.7328 6.0368h3.2731l-1.652-4.5083zm7.7216-6.0368h1.5439v10.823h-1.5439z" fill="#00062c" stroke="#fff" stroke-linecap="square" stroke-width="1.6074" style="paint-order:stroke fill markers" aria-label="AI"/>
</svg>
